/* XPM */
static char *dff5b8d7d61d413aaa1c9475bfa42e38IJY3Jn4OMUw7Y6D6[] = {
/* columns rows colors chars-per-pixel */
"25 25 145 2 ",
"   c #16356D",
".  c #18376E",
"X  c #18386E",
"o  c #143B75",
"O  c #183C76",
"+  c #133D79",
"@  c #183D7A",
"#  c #0D437D",
"$  c #134176",
"%  c #13437C",
"&  c #1B437C",
"*  c #16497F",
"=  c #204277",
"-  c #254A7F",
";  c #0C4581",
":  c #0C4A83",
">  c #0E4D88",
",  c #144482",
"<  c #194580",
"1  c #144B85",
"2  c #1B4B84",
"3  c #174588",
"4  c #184588",
"5  c #144E8C",
"6  c #1C4D89",
"7  c #0B538D",
"8  c #13538D",
"9  c #1B528C",
"0  c #18598F",
"q  c #0D5692",
"w  c #0D5B95",
"e  c #0B5D99",
"r  c #145593",
"t  c #1C5593",
"y  c #135995",
"u  c #1C5B95",
"i  c #145498",
"p  c #135D99",
"a  c #1B5E9A",
"s  c #224982",
"d  c #234F8B",
"f  c #265085",
"g  c #24548C",
"h  c #2B538B",
"j  c #295690",
"k  c #235B93",
"l  c #2C5B93",
"z  c #235D99",
"x  c #2A5D99",
"c  c #315D93",
"v  c #0E629D",
"b  c #14639D",
"n  c #1B639C",
"m  c #286096",
"M  c #23639C",
"N  c #2B649C",
"B  c #26689E",
"V  c #3B6A9F",
"C  c #1B5EA0",
"Z  c #0D66A2",
"A  c #0E6AA5",
"S  c #0E6DAA",
"D  c #1265A3",
"F  c #1A65A1",
"G  c #156AA4",
"H  c #1B6BA4",
"J  c #126DA9",
"K  c #1D6DA8",
"L  c #0F72AC",
"P  c #1270A7",
"I  c #1473AC",
"U  c #1C73AC",
"Y  c #1C7AAF",
"T  c #1073B1",
"R  c #1C7CB1",
"E  c #1C7EBD",
"W  c #2366A1",
"Q  c #2B66A1",
"!  c #236BA4",
"~  c #2A6CA5",
"^  c #236FAA",
"/  c #3265A0",
"(  c #346AA2",
")  c #396BA4",
"_  c #316FA9",
"`  c #2D70A7",
"'  c #2473AB",
"]  c #2B74AC",
"[  c #2179AD",
"{  c #2978AF",
"}  c #3A71A7",
"|  c #3374AD",
" . c #3972AB",
".. c #3278AE",
"X. c #2376B0",
"o. c #2C77B0",
"O. c #247BB4",
"+. c #2C7BB4",
"@. c #2B7EB8",
"#. c #3376B2",
"$. c #347CB4",
"%. c #3A7CB4",
"&. c #387FB9",
"*. c #4276AE",
"=. c #1E83B6",
"-. c #1F81BB",
";. c #2187B8",
":. c #2484B8",
">. c #2685BA",
",. c #2C82BA",
"<. c #2388BD",
"1. c #2D8ABC",
"2. c #2E8ABE",
"3. c #3280B7",
"4. c #3386B9",
"5. c #3384BB",
"6. c #3585BB",
"7. c #3783BD",
"8. c #3687BD",
"9. c #3B81BA",
"0. c #3883BB",
"q. c #3B86BC",
"w. c #3089BD",
"e. c #4085BF",
"r. c #4A83BA",
"t. c #2183C0",
"y. c #2C8DC0",
"u. c #2B8BC4",
"i. c #288ECA",
"p. c #3D86C0",
"a. c #358EC5",
"s. c #3D8BC1",
"d. c #2B91C3",
"f. c #3293C4",
"g. c #3890C7",
"h. c #3B93C7",
"j. c #3B94C5",
"k. c #349AD0",
"l. c #379CD0",
"z. c #418BC2",
"x. c #408CC3",
"c. c #488FC6",
"v. c #4593CB",
"b. c #4698CE",
"n. c #469ED5",
/* pixels */
"D U o._ x s = f g > w e e 7 7 O.8.! b G e b 8.v A ",
"I Y H #.Q h V } 1 q e Z e 7 w U y 9 | +.H ' $.w b ",
"Y =.y.+.t + d #.q w b Z Z w H G 1 o Q p H x.H e b ",
"=.;.w.' i p t p.F D A Z Z Z O.S w 8 W n G ,.y b P ",
"R :.w.H q D D U h.-.E t.E @.y.A e e +.] ' 6.e y b ",
"U w.h.G e w A S u.l.k.i.E I H ' a W ! p y 6.U F ' ",
"I R :.@.e w Z e R n.-.T J Z q a $.t 1 7 8 ] H a b ",
"U =.<.y.' H e 7 &.! q e e q > t z 1 1 , 5 a a y y ",
"Y ;.d.a.6.s.' M Q ; : 7 w y Q *.< O + 1 t t r b b ",
"U [ 4.! 8 ] 0.] ; ; 8 H O.W x ) l < 6 g z u 7 y G ",
"n B k , % ~ r M n ~ ] K U r + g *.d g 3 N ~ 7 w H ",
"g k 1 + % Q ; ; r s.H y C t , x x 3 3 , 1 Q a q q ",
"g * & & t x , ; 5 v.X.w 7 6 2 / 6 & 4 , O 4 B ` ] ",
"X & - & ( t 5 i r p.$.n u k j l & O O + $ $ 1 9.m ",
"X X X h ) 6 F i t ] u 7 > 5  .r.s O O + , 6 k 0 1 ",
"O     X c z C z %.1 : q w 8 Q l g g 3 u M B 8 % 2 ",
"O O O O ) e.W z | * % > w n M + o 2 M $.~ ' 8 2 % ",
"4 1 N %.#.! 5 , 6 f $ u H n 8 % $ # 8 +.H b ' g o ",
"r ~ x.8.! a i 6 k ( B ! G b 8 $ $ * n H q r a 9 1 ",
"! { O.4.+.a a Q t M $.+.:.H 8 2 6 m ] v q 7 q q n ",
"b I Y ' ] | &.Q 8 r y H q.! n u m q.5.O.:.b 7 u B ",
"b U H F a u Q _ B p F +.b 3.P [ j.1.I A G 4.] ~ b ",
"H G n u 9 4 , 6 | ! { ' A O.:.f.2.=.P I I @.o.| B ",
"0.U b 6 * O . O 9 c.{ v v w 4.b.P v v A Z ,.H ! ' ",
"' 5.n 5 @ . . o m e.p q v 7 b q.b w w v w H b.Y b "
};
