/* XPM */
static char *_dfe3a9d14984bd3d29d87d6f60566cbnGXhhoiO7KLTxj79[] = {
/* columns rows colors chars-per-pixel */
"25 25 196 2 ",
"   c None",
".  c #E10000",
"X  c #E02500",
"o  c #EB2D0B",
"O  c #E73A00",
"+  c #E13E07",
"@  c #E12E15",
"#  c #E73014",
"$  c #E00034",
"%  c #E34704",
"&  c #E85D00",
"*  c #E4540F",
"=  c #FF5E00",
"-  c #FB530F",
";  c #E7431C",
":  c #E15211",
">  c #E75217",
",  c #F35E14",
"<  c #FE5B15",
"1  c #FF5F16",
"2  c #F4571B",
"3  c #FF5A18",
"4  c #FB5C1B",
"5  c #F95C1F",
"6  c #F06B00",
"7  c #FF6B00",
"8  c #FF6D00",
"9  c #FF6C0F",
"0  c #EB7900",
"q  c #EA7A00",
"w  c #E8710D",
"e  c #FF7000",
"r  c #FE7704",
"t  c #FB7800",
"y  c #F16010",
"u  c #FE641B",
"i  c #FF611C",
"p  c #F9641C",
"a  c #FD6E1A",
"s  c #FE6F1B",
"d  c #FC6C1D",
"f  c #FF6D1C",
"g  c #FE6D1D",
"h  c #FD6F1D",
"j  c #FE6E1C",
"k  c #FE6F1C",
"l  c #FF6E1D",
"z  c #FE6F1D",
"x  c #FF6F1D",
"c  c #EB7511",
"v  c #FF7510",
"b  c #FF7217",
"n  c #FE7416",
"m  c #FF7917",
"M  c #FD7318",
"N  c #FF701B",
"B  c #FE731A",
"V  c #FF731A",
"C  c #FF721B",
"Z  c #FF741B",
"A  c #FE701C",
"S  c #FF701C",
"D  c #FF711D",
"F  c #FF731C",
"G  c #FF721D",
"H  c #FF731D",
"J  c #FF741D",
"K  c #FF751E",
"L  c #FF751F",
"P  c #FF771E",
"I  c #FF771F",
"U  c #FF781D",
"Y  c #FF791D",
"T  c #FE781E",
"R  c #FF7F1D",
"E  c #E54D26",
"W  c #FF4929",
"Q  c #FF4A2D",
"!  c #F75420",
"~  c #FF5A21",
"^  c #FF5F28",
"/  c #FE583F",
"(  c #FF6720",
")  c #FF6727",
"_  c #FE6921",
"`  c #FF6B20",
"'  c #FF6B21",
"]  c #FF6E21",
"[  c #FF6C22",
"{  c #FD672C",
"}  c #FE662D",
"|  c #E87120",
" . c #FF7320",
".. c #FF7022",
"X. c #FF7823",
"o. c #FF7B22",
"O. c #FF7029",
"+. c #FF722E",
"@. c #FF6932",
"#. c #FF7331",
"$. c #EC8700",
"%. c #ED8C00",
"&. c #ED8E00",
"*. c #F68200",
"=. c #FF8600",
"-. c #F68E00",
";. c #FF8A00",
":. c #FF8D00",
">. c #ED9100",
",. c #EF9400",
"<. c #EF9A00",
"1. c #F09F00",
"2. c #FF9F00",
"3. c #EF9D15",
"4. c #F0A100",
"5. c #F6A200",
"6. c #FFA600",
"7. c #F2AA00",
"8. c #F7A900",
"9. c #F5AA00",
"0. c #F3B100",
"q. c #F4B100",
"w. c #F5B500",
"e. c #F4B600",
"r. c #FBB700",
"t. c #FEB500",
"y. c #FFB700",
"u. c #F5B900",
"i. c #FFBB00",
"p. c #FBAE1F",
"a. c #FFB11A",
"s. c #F3AF39",
"d. c #F7C300",
"f. c #F8C400",
"g. c #F8C600",
"h. c #F7CA00",
"j. c #F8C800",
"k. c #F8C900",
"l. c #F9CA00",
"z. c #FFC800",
"x. c #FACD0F",
"c. c #FAD000",
"v. c #FBD300",
"b. c #FCD600",
"n. c #FED800",
"m. c #FDDB00",
"M. c #FEDC00",
"N. c #FBC915",
"B. c #F8C71B",
"V. c #FFE200",
"C. c #FDE700",
"Z. c #FFEB00",
"A. c #FFEC00",
"S. c #F8C627",
"D. c #FFCD23",
"F. c #FAC12C",
"G. c #F7CA28",
"H. c #FCDB2F",
"J. c #FFC735",
"K. c #FFE22A",
"L. c #FFEF3A",
"P. c #F6C542",
"I. c #F9CB51",
"U. c #FEDB56",
"Y. c #FFE94B",
"T. c #FFE859",
"R. c #FFE85D",
"E. c #FFF25A",
"W. c #FFEA76",
"Q. c #FFF07B",
"!. c #FBDF90",
"~. c #FFF589",
"^. c #FFF88E",
"/. c #FCE291",
"(. c #FFEFA0",
"). c #FFF7A0",
"_. c #FDEAB9",
"`. c #FEF4B8",
"'. c #FFFCBB",
"]. c #FFFDBF",
"[. c #FEF3C8",
"{. c #FFF9D0",
"}. c #FFFFD0",
"|. c #FFFDD2",
" X c #FFFFD3",
".X c #FFFAD5",
"XX c #FEF5DF",
"oX c #FFFFDD",
"OX c #FFFFDF",
"+X c #FFFAE2",
"@X c #FEFFE4",
"#X c #FFFFE8",
"$X c #FFFFEF",
"%X c #FFFFFA",
"&X c #FFFFFE",
"*X c white",
/* pixels */
"                                                  ",
"                                                  ",
"                                                  ",
"                h s       G N                     ",
"                h h   h G i g O.T h               ",
"                    ~ a.n.: o 9 ]                 ",
"                Z  .W p.C.c <.r.v _               ",
"            N    .y 8.5.E $.).].y.G J             ",
"          N X.T p 8.^.Q.w 7.oX*XS.= o.            ",
"            i D.j.d.*X+Xq.v.W./.| Q m d           ",
"            4 N.h.q _.).d.A.q.& %.*.) R           ",
"          J < + > >.j.V.[..Xg.s.~.U.=.}           ",
"            G # % K.L.g.XX$XM.R.*X'.2./           ",
"            J Z ; 4.u.c.Y.T.n.I. X!.t #.          ",
"              _ 6 G.B.b.0.%.A.,.%.q 5 T           ",
"              - i.#X Xe.$ 3.E.P.. ! J s           ",
"              < y.@X X1.. H.%X{.-.@.n s           ",
"              o.r J.F.* X x.oX`.:.} N h           ",
"              h _ 7 O @ 2 ;.z.6.u                 ",
"                  +.} y G ( 8 e                   ",
"                  N Z J G                         ",
"                                                  ",
"                                                  ",
"                                                  ",
"                                                  "
};
