/* XPM */
static char *_570c312d65d43eb97f936070ec0d04bHoCOusnbooklOfDn[] = {
/* columns rows colors chars-per-pixel */
"25 25 23 1 ",
"  c None",
". c #FF3800",
"X c #FF9272",
"o c #FF9176",
"O c #FFA58D",
"+ c #FFA594",
"@ c #FFAE98",
"# c #FFD6CE",
"$ c #FFDBD3",
"% c #FFF0EB",
"& c #FFF1ED",
"* c #FFF4EE",
"= c #FFF7F6",
"- c #FFF8F6",
"; c #FFF9F7",
": c #FFFBF9",
"> c snow",
", c #FFFBFB",
"< c #FFFCF8",
"1 c #FFFDFD",
"2 c #FFFEFE",
"3 c #FFFFFE",
"4 c white",
/* pixels */
"                         ",
"                         ",
"                         ",
"                         ",
"                         ",
"                         ",
"                         ",
"                         ",
"                         ",
"        1  1             ",
"   11   1 11  11         ",
"     111,;1;111          ",
"       1%@+O11           ",
"       11X.X$&111        ",
"     111:,=$111          ",
"     1  11111111         ",
"        1  11  11        ",
"       11   1            ",
"       1     1           ",
"      1                  ",
"                         ",
"                         ",
"                         ",
"                         ",
"                         "
};
