/* XPM */
static char *_301a757fa1d48a8fda7033661e0c701rOiyrIH9CkSvkkRR[] = {
/* columns rows colors chars-per-pixel */
"25 25 47 1 ",
"  c None",
". c #FE6300",
"X c #FE6D14",
"o c #FE6D16",
"O c #FE752D",
"+ c #FE7430",
"@ c #FE7638",
"# c #FE783A",
"$ c #FE793D",
"% c #FE7E48",
"& c #FE9471",
"* c #FE9C7C",
"= c #FE9E80",
"- c #FFA286",
"; c #FEAF99",
": c #FFBAA8",
"> c #FEBFAD",
", c #FEC0B1",
"< c #FEC1B2",
"1 c #FFCABC",
"2 c #FECBBF",
"3 c #FECCBF",
"4 c #FFCCC0",
"5 c #FED9CF",
"6 c #FFDED3",
"7 c #FFDED5",
"8 c #FFE4D9",
"9 c #FFE7E0",
"0 c #FEE9E4",
"q c #FFEAE5",
"w c #FFEFEB",
"e c #FFEFEC",
"r c #FFF1ED",
"t c #FFF1EE",
"y c #FFF2EE",
"u c #FFF9F3",
"i c #FFFAF5",
"p c #FDFAF9",
"a c #FFFAF9",
"s c snow",
"d c #FFFCFA",
"f c #FFFCFB",
"g c #FFFDFD",
"h c #FFFFFD",
"j c #FFFEFE",
"k c #FFFFFE",
"l c white",
/* pixels */
"                         ",
"                         ",
"                         ",
"                         ",
"             l           ",
"        ll  ll           ",
"         ll ll    ll     ",
"         lllll  lll      ",
"         lllllllll       ",
"     ll  l80wluul        ",
"      llsly*;>>s         ",
"       ll6<#..yl         ",
"        s7=oo@-9lll      ",
"         l0O+$1tlllll    ",
"        fl14:%lls        ",
"       lll3le&sll        ",
"     lll flll5sll        ",
"         ll llllll       ",
"         ll  ll  ll      ",
"         l   ll          ",
"        l     l          ",
"              l          ",
"               l         ",
"                         ",
"                         "
};
