/* XPM */
static char *dbfac81bc2694987e32949ac48de1517L7GHorYGGGcIvY4E[] = {
/* columns rows colors chars-per-pixel */
"25 25 189 2 ",
"   c None",
".  c red",
"X  c #FE0003",
"o  c #FD0B06",
"O  c #FC0A08",
"+  c #FF1C00",
"@  c #FF1F00",
"#  c #F2141F",
"$  c #FF2400",
"%  c #FF2800",
"&  c #FF2B00",
"*  c #FF2C00",
"=  c #FF2D00",
"-  c #FB2D0E",
";  c #FF3100",
":  c #FF3300",
">  c #FF3201",
",  c #FF3500",
"<  c #FF3600",
"1  c #FF3800",
"2  c #FF3A00",
"3  c #FF3B00",
"4  c #FE3A02",
"5  c #FF3C00",
"6  c #FF3D00",
"7  c #FF3E00",
"8  c #FF3F00",
"9  c #FD3B09",
"0  c #FB3C0B",
"q  c #FC3C0A",
"w  c #F93912",
"e  c #F83C15",
"r  c #FE4000",
"t  c #FF4000",
"y  c #FF4100",
"u  c #FE4001",
"i  c #FF4101",
"p  c #FF4200",
"a  c #FF4300",
"s  c #FF4201",
"d  c #FF4301",
"f  c #FF4102",
"g  c #FE4103",
"h  c #FF4202",
"j  c #FE4203",
"k  c #FF4400",
"l  c OrangeRed",
"z  c #FE4501",
"x  c #FF4501",
"c  c #FF4600",
"v  c #FF4700",
"b  c #FF4601",
"n  c #FF4701",
"m  c #FF4007",
"M  c #FD4605",
"N  c #FF4800",
"B  c #FF4900",
"V  c #FF4A01",
"C  c #FF4B03",
"Z  c #FE4C03",
"A  c #FE4905",
"S  c #FD4A04",
"D  c #FF4806",
"F  c #FE4906",
"G  c #FF4F07",
"H  c #FC4109",
"J  c #FD4B08",
"K  c #FC4C09",
"L  c #FC4D09",
"P  c #FB550B",
"I  c #FC5509",
"U  c #FA540F",
"Y  c #FB590B",
"T  c #FF5A0B",
"R  c #FC580D",
"E  c #FA5C0E",
"W  c #FF5C0C",
"Q  c #F74617",
"!  c #F94313",
"~  c #FB4610",
"^  c #F74F16",
"/  c #F94B12",
"(  c #FF4B14",
")  c #F64719",
"_  c #F74A18",
"`  c #F64D19",
"'  c #F85516",
"]  c #FF5B12",
"[  c #F95E11",
"{  c #F85D15",
"}  c #FF5E15",
"|  c #F55A1A",
" . c #F25F1F",
".. c #FD6206",
"X. c #FB660E",
"o. c #FC6D0A",
"O. c #FB690E",
"+. c #F76017",
"@. c #F76317",
"#. c #FD6617",
"$. c #FF6B14",
"%. c #F5621A",
"&. c #F66418",
"*. c #F4661D",
"=. c #F56B1B",
"-. c #FA7010",
";. c #F5701A",
":. c #F67419",
">. c #F3751F",
",. c #F3761E",
"<. c #F37D1F",
"1. c #EE5F26",
"2. c #F25720",
"3. c #F05E23",
"4. c #EE6D25",
"5. c #F06523",
"6. c #F26821",
"7. c #F16A21",
"8. c #EF7024",
"9. c #EF7224",
"0. c #ED7827",
"q. c #F27021",
"w. c #F17521",
"e. c #F27520",
"r. c #F07424",
"t. c #FF900F",
"y. c #F88314",
"u. c #F78816",
"i. c #F5801A",
"p. c #F68718",
"a. c #F2861F",
"s. c #F4891E",
"d. c #F48C1D",
"f. c #F69F17",
"g. c #F89B13",
"h. c #F69719",
"j. c #F3921E",
"k. c #F3991F",
"l. c #F7A017",
"z. c #F7A117",
"x. c #F9AE14",
"c. c #F3A01E",
"v. c #F7AC18",
"b. c #F5AC1B",
"n. c #F4AF1C",
"m. c #F7B216",
"M. c #F7B416",
"N. c #FAB410",
"B. c #F9B912",
"V. c #F9BA12",
"C. c #F5B01A",
"Z. c #F6BA19",
"A. c #F6BF1A",
"S. c #EF8624",
"D. c #F28320",
"F. c #F18421",
"G. c #F18921",
"H. c #F28921",
"J. c #F29120",
"K. c #F09122",
"L. c #F09522",
"P. c #F19F22",
"I. c #FBCF0C",
"U. c #FEDC03",
"Y. c #FDDE06",
"T. c #FBD10B",
"R. c #FCD60B",
"E. c #FBD20D",
"W. c #FCD90B",
"Q. c #FCDC09",
"!. c #FBDB0F",
"~. c #F7C417",
"^. c #FAC610",
"/. c #F9C413",
"(. c #F8C314",
"). c #F8C615",
"_. c #F9CB12",
"`. c #F9CC14",
"'. c #FBCD14",
"]. c #F6C41A",
"[. c #FEE502",
"{. c #FFE007",
"}. c #FFE800",
"|. c #FFED00",
" X c #FFF000",
".X c #FFF100",
"XX c #FFF300",
"oX c #FFF600",
"OX c #FFF700",
/* pixels */
"                                                  ",
"                                                  ",
"                      8 p                         ",
"                    p p p p                       ",
"                  v p , > p p p v p               ",
"                F C & y.t.o q 2 ] G p             ",
"            p 2 #.Y . g.v.6.H./ { K 8 p           ",
"            p v Z ~ | e  .'.{.j.m.$.= C           ",
"            v , . H.].K.F.}.OXm.f.o.& v 8         ",
"          p p ..u.).OXE.4./.W.D.# 0 p p p         ",
"          v $ p.Z.V..X'.` [ w.k.~.w.2 p           ",
"          p 8 P ' 6.C.i.j + ;.}..Xb.- v 8         ",
"            p $ &.C.S.) p = :.Q.|.z.O $.M         ",
"            W ^ M..XR.>.v ' 5.k.b.F.I ] F         ",
"          > T ! N.OX!.=.E L.(.^.1.K.X.$ v         ",
"          p v & O.V.h.w %.8.I.Y.0.{ 8 p p         ",
"            8 p = 0 2.d.E.f.>.s.*.2 2 p           ",
"            8 C p p 3.~..XU.8.Q p 8 v 8           ",
"              p j v ` C.|._.r.F R &.2 p           ",
"                p 8 j 7.P.<.H p K K v p           ",
"                p p p F ( 9 8 8 2 8 p             ",
"                  p p     8 p p C p               ",
"                                                  ",
"                                                  ",
"                                                  "
};
