/* XPM */
static char *_ba64068b9524991a7e72a2e7266097bHgizrdUQIBPVqoJE[] = {
/* columns rows colors chars-per-pixel */
"25 25 12 1 ",
"  c None",
". c #53432D",
"X c #54432D",
"o c #54432E",
"O c #55432E",
"+ c #53442D",
"@ c #54442D",
"# c #55442D",
"$ c #54452D",
"% c #54442E",
"& c #55442E",
"* c #54452F",
/* pixels */
"                         ",
"            .            ",
"           oo            ",
"                         ",
"                         ",
"                         ",
"        @     @          ",
"        o         @      ",
"                   *     ",
"                   @     ",
"                         ",
"                         ",
"     %      @            ",
"     @      @@           ",
"                         ",
"                         ",
"                   @     ",
"                   *     ",
"       @                 ",
"       @                 ",
"               @o        ",
"                         ",
"                         ",
"                         ",
"                         "
};
