/* XPM */
static char *b9bbd99757974781a836cec6c0ed5380lCxSvTvNYHEuQeoi[] = {
/* columns rows colors chars-per-pixel */
"25 25 142 2 ",
"   c None",
".  c #010101",
"X  c #0B0301",
"o  c #0A0A07",
"O  c #030A0B",
"+  c #0D0C0B",
"@  c #100300",
"#  c #1C0200",
"$  c #140B04",
"%  c #180D03",
"&  c #0F110E",
"*  c #1A1006",
"=  c #15110A",
"-  c #1C130A",
";  c #151512",
":  c #1A1510",
">  c #191916",
",  c #1D1E1B",
"<  c #260000",
"1  c #241506",
"2  c #2A1906",
"3  c #251709",
"4  c #2C1B0C",
"5  c #381600",
"6  c #3C1E00",
"7  c #311E0A",
"8  c #211F1E",
"9  c #1F201E",
"0  c #3C2204",
"q  c #35210E",
"w  c #3D250D",
"e  c #2E2013",
"r  c #23221E",
"t  c #342313",
"y  c #392511",
"u  c #3E2915",
"i  c #33261C",
"p  c #37281B",
"a  c #3C2918",
"s  c #262722",
"d  c #2D2A25",
"f  c #272829",
"g  c #2D2F29",
"h  c #352C24",
"j  c #392B20",
"k  c #3C3026",
"l  c #33322C",
"z  c #3B332D",
"x  c #393431",
"c  c #3C3B34",
"v  c #3E3C39",
"b  c #442504",
"n  c #4E2600",
"m  c #4A2A02",
"M  c #412709",
"N  c #472909",
"B  c #4D2D0C",
"V  c #572F00",
"C  c #5A3200",
"Z  c #422A13",
"A  c #4E2F13",
"S  c #422E1E",
"D  c #45301F",
"F  c #4E3118",
"G  c #5D3913",
"H  c #613C12",
"J  c #423324",
"K  c #423A2A",
"L  c #4A3D2E",
"P  c #423C33",
"I  c #4B3E30",
"U  c #66421E",
"Y  c #5C432A",
"T  c #464035",
"R  c #4B4336",
"E  c #44443C",
"W  c #49463D",
"Q  c #46483F",
"!  c #4C483D",
"~  c #5B4A35",
"^  c #524A3D",
"/  c #604B34",
"(  c #464443",
")  c #4C4B42",
"_  c #4D4A49",
"`  c #514F44",
"'  c #525146",
"]  c #5D5445",
"[  c #56554A",
"{  c #59564A",
"}  c #5C594E",
"|  c #565451",
" . c #595653",
".. c #5D5C51",
"X. c #615F53",
"o. c #605D5B",
"O. c #636255",
"+. c #676658",
"@. c #69675A",
"#. c #6D6B5D",
"$. c #716F61",
"%. c #737262",
"&. c #797667",
"*. c #797768",
"=. c #7B7969",
"-. c #81806F",
";. c #848371",
":. c #898775",
">. c #8A8976",
",. c #8D8C78",
"<. c #908F7B",
"1. c #94927E",
"2. c #969481",
"3. c #989782",
"4. c #999782",
"5. c #999783",
"6. c #989682",
"7. c #999883",
"8. c #9A9883",
"9. c #9A9983",
"0. c #9B9983",
"q. c #999884",
"w. c #9B9984",
"e. c #9B9A85",
"r. c #9D9B86",
"t. c #9E9C87",
"y. c #9E9D87",
"u. c #9F9E88",
"i. c #A19F89",
"p. c #A1A18A",
"a. c #A2A08A",
"s. c #A2A08B",
"d. c #A3A18B",
"f. c #A3A28C",
"g. c #A5A38D",
"h. c #A5A48D",
"j. c #A8A68F",
"k. c #A8A790",
"l. c #A9A790",
"z. c #AAA891",
"x. c #B0AD96",
"c. c #B6B39B",
/* pixels */
"                      z.z.6.                      ",
"                6.%.1.j.h.>.g.<.c.                ",
"              y.x.6.%.$.#.#.` >.z.e.,.            ",
"          9.9.<.#.,.%.' { ` ) <.*.+.=.i.          ",
"        ;.l.&.{ #.W c . . . o ' O.$.2.q.q.        ",
"      } e.#.$.} t . . o o o . . . { -.+.:.;.      ",
"      g.O.O.} q 0 = + . . . . = - < T O.=.a.      ",
"    6.2.a.$.< q a $ . . . . . . - t 6 ^ 2.g.5.    ",
"    d.&.$.] 6 h z . . . . . . . : d a J X.#.5.    ",
"    :.X.[ s  .( . + . . . . . . . 8 ..x W ..i.=.  ",
"    i.<.) . z p 0 o . . . . . . % 7 z - 8 5.g.@.  ",
"    :.&.` b B 0 Z . . . . . . . * w m n I <.$.+.  ",
"    &.' R G A Z w . . . . . . . % w F V ~ >.+.!   ",
"    0.-.I U B 0 M . . . . . . . % w A G Y :.1.$.  ",
"    d.;.R H b t k o . . . . . . : i N C ~ 9.1.=.  ",
"    %.} ! j | c O o . . . . . . . 8 | P R 1.O.{   ",
"    =.#. .f _ v . + . . . . . . . : | , | =.%...  ",
"    z.>.E i X # 4 . . . . . . . $ 1 X # E 6.u.*.  ",
"    ,.@.P 5 a 4 2 X . . . . . . $ 1 i 6 K 1.*...  ",
"    %.{ P b y e 4 . . . . . . . $ 4 t 6 L ;.X.)   ",
"    1.-.z M Z q 1 . . O . o o o o 2 u N J ;.:.+.  ",
"    =.+.T b y % & o & = ; ; ; > > = e 0 L ;.#.[   ",
"    ' c l X O & > 9 9 f l l g g g g g r P %.) l   ",
"    W c d O 9 s g c Q E Q E Q ` ) ) ) ) _ ` l l   ",
"                      O...#.                      "
};
