/* XPM */
static char *_e18246883da46ade732ef959149b61crvLpdP3v1E56TP4X[] = {
/* columns rows colors chars-per-pixel */
"25 25 102 2 ",
"   c #00690F",
".  c #00770C",
"X  c #007C0D",
"o  c #046E11",
"O  c #006E1E",
"+  c #027313",
"@  c #0C7514",
"#  c #007D15",
"$  c #0C7B15",
"%  c #00741A",
"&  c #017918",
"*  c #0C7E1E",
"=  c #117A16",
"-  c #197E18",
";  c #018213",
":  c #0A8716",
">  c #0B8916",
",  c #078019",
"<  c #0A8518",
"1  c #0E8B19",
"2  c #158518",
"3  c #1B841A",
"4  c #128D1A",
"5  c #1A8D1B",
"6  c #16911A",
"7  c #1B951D",
"8  c #1F981D",
"9  c #21961E",
"0  c #28951F",
"q  c #21991E",
"w  c #1E9522",
"e  c #249721",
"r  c #2C9420",
"t  c #249A21",
"y  c #2A9D22",
"u  c #2E9F28",
"i  c #319621",
"p  c #329C23",
"a  c #2EA222",
"s  c #32A424",
"d  c #36A825",
"f  c #3AAB27",
"g  c #34A32A",
"h  c #3AA62E",
"j  c #3DAB2B",
"k  c #44AB29",
"l  c #44B22A",
"z  c #49B52B",
"x  c #4DB92D",
"c  c #53BB2E",
"v  c #42AC31",
"b  c #4CB334",
"n  c #51B737",
"m  c #54BD30",
"M  c #54B838",
"N  c #57B93A",
"B  c #5BBE39",
"V  c #5ABD3A",
"C  c #5BBC3C",
"Z  c #57C030",
"A  c #58C130",
"S  c #5AC231",
"D  c #5BC231",
"F  c #5CC232",
"G  c #5CC332",
"H  c #5EC533",
"J  c #60C633",
"K  c #61C733",
"L  c #62C635",
"P  c #62C834",
"I  c #65C935",
"U  c #66CA35",
"Y  c #68CB36",
"T  c #69CC36",
"R  c #63C638",
"E  c #69CA39",
"W  c #6CCD3A",
"Q  c #6ECC3E",
"!  c #70CF3D",
"~  c #73D13D",
"^  c #67C244",
"/  c #6BC743",
"(  c #69C346",
")  c #6AC346",
"_  c #6FCB42",
"`  c #71CE40",
"'  c #72CC42",
"]  c #75CC49",
"[  c #77CE48",
"{  c #77D045",
"}  c #79D147",
"|  c #7CD347",
" . c #7BD444",
".. c #7ED14D",
"X. c #83D948",
"o. c #84DA48",
"O. c #87D84F",
"+. c #88DC4A",
"@. c #8BDD4E",
"#. c #89D754",
"$. c #91DF53",
"%. c #91DF54",
/* pixels */
"; ; ; ; ; X X ; X ; ; & # ; ; & & ; ; # ; ; & # ; ",
"; & ; y > # # ; e C g & & 6 f s : ; & + ; ; < # ; ",
"# & 1 F > O & 8 ` _ t # # > [ +.s ; & ; 7 z Z a < ",
"; ; a ..6 # > c x 6 # O & ; y { Z 4 ; > Z T ~ @.g ",
"; ; N o.x > > G f ; & & # ; ; a Y a ; s U c b O.v ",
"& * m T G > > S ~ v X q N j 8 > c s 8 F l > # : ; ",
"% & d U G 7 > S  .h ; q #.@.S 4 s a f S 4 4 ; X ; ",
"# # 7 F T a 7 G l , # X > s K 0 o @ l d : ) B : X ",
"7 d ; q F 0 y x 1 & ; X X : 0 @     2 > ; 7 ! s # ",
"^ [ > ; 5 @ + $ # # & & ; ; # + # ; 4 6 & # s i ; ",
"b Y q ; X X # ; & & # & ; ; & % ; h [ d % & + + X ",
"> x z > # u n s 1 # & # a z e ; ; V X.0 # 7 4 + # ",
"X q U p & j ) | m t & # 4 G $.h ; x z ; 5 m 4 % ; ",
"X > K s & ; ; 9 z G q % & 8 m x 5 z 7 : ] V ; ; ; ",
"; : k 2 ; ; % & : z x < , ; > m i o o i W a ; 6 X ",
"& # + + X X & & ; d L F } w ; 7 3   - c d ; t d ; ",
"& # t 7 # 6 q 1 ; 9 Y ' C 2 # & & + @ 7 ; 1 X.R 1 ",
": V / 7 ; > V ^ ; + k i + O & % & ; # # ; e ` k ; ",
"w %.m > ; ; s O.5 + = $ # ; g 1 & ; & O + @ 4 * & ",
"5 Q U l > ; z L > & & # 1 l k 1 s q : & # # 1 , & ",
"> l T Y s 2 S F 1 & # > B G 1 ; b { c 6 ; h O.s # ",
"; 4 S Y k i K k & < j f W z ; # ; y P p 7 K z > ; ",
"; ; 7 0 @ + 5 < # 1 b L U z : & ; ; y 3 k m 1 # ; ",
"; # & # . # & & # X ; q 0 r 2 % # ; . o p s ; % & ",
"; + % % X ; ; # ; ; ; ; X . + & # X ; ; , ; ; # ; "
};
