/* XPM */
static char *c941dfc7277740b4c4e1cba49d3e10525i7lM41nTRkCxtuI[] = {
/* columns rows colors chars-per-pixel */
"25 25 231 2 ",
"   c None",
".  c #000000",
"X  c #000200",
"o  c #000301",
"O  c #000002",
"+  c #000007",
"@  c #000307",
"#  c #000F00",
"$  c #000F0C",
"%  c #001102",
"&  c #001700",
"*  c #240C0A",
"=  c #27170E",
"-  c #211C0F",
";  c #32190C",
":  c #330912",
">  c #26220D",
",  c #410015",
"<  c #460016",
"1  c #400D12",
"2  c #420916",
"3  c #5A1A1F",
"4  c #5F181C",
"5  c #5E1A1C",
"6  c #452314",
"7  c #492517",
"8  c #4C2B14",
"9  c #643400",
"0  c #673700",
"q  c #613718",
"w  c #6B361B",
"e  c #6A361C",
"r  c #6E391C",
"t  c #760526",
"y  c #671C20",
"u  c #6D1F21",
"i  c #711623",
"p  c #782225",
"a  c #723E20",
"s  c #724500",
"d  c #505A63",
"f  c #626A71",
"g  c #697179",
"h  c #787775",
"j  c #840A2A",
"k  c #810E29",
"l  c #821427",
"z  c #8C192B",
"x  c #812429",
"c  c #883527",
"v  c #9C3D2C",
"b  c #9D3D2D",
"n  c #A62235",
"m  c #A72A33",
"M  c #AD2E35",
"N  c #A63331",
"B  c #AB3935",
"V  c #8B4900",
"C  c #894F00",
"Z  c #805A00",
"A  c #815E00",
"S  c #856200",
"D  c #866400",
"F  c #A17A00",
"G  c #864522",
"H  c #8D4623",
"J  c #8E4725",
"K  c #8E4726",
"L  c #874A22",
"P  c #934A26",
"I  c #984C27",
"U  c #9D4832",
"Y  c #A84C2D",
"T  c #A9562C",
"R  c #A04A35",
"E  c #AE4C30",
"W  c #B54A33",
"Q  c #AA5133",
"!  c #B35B31",
"~  c #C36034",
"^  c #C26335",
"/  c #C26336",
"(  c #CC6137",
")  c #CB6836",
"_  c #CA6A36",
"`  c #CE6A38",
"'  c #D06937",
"]  c #D36539",
"[  c #D8663B",
"{  c #D36838",
"}  c #D26A38",
"|  c #D36C38",
" . c #D66E38",
".. c #D76D3A",
"X. c #DA6C39",
"o. c #DF6C3B",
"O. c #DC6F3A",
"+. c #DB703B",
"@. c #DC703A",
"#. c #DF723B",
"$. c #DD703C",
"%. c #DE703C",
"&. c #E8653D",
"*. c #E76D3D",
"=. c #E76E3D",
"-. c #E86F3C",
";. c #EE6E3F",
":. c #E0713C",
">. c #E4703C",
",. c #E6703C",
"<. c #E6703D",
"1. c #E4733C",
"2. c #E6733C",
"3. c #E4753C",
"4. c #E6753C",
"5. c #E6743D",
"6. c #E7763D",
"7. c #E8703D",
"8. c #E8743D",
"9. c #E9773C",
"0. c #E9763D",
"q. c #EA763D",
"w. c #EB763E",
"e. c #EC743D",
"r. c #ED753D",
"t. c #ED773F",
"y. c #E3783B",
"u. c #E77F3D",
"i. c #EB7A3D",
"p. c #ED783E",
"a. c #EE793F",
"s. c #F0723F",
"d. c #F1763F",
"f. c #F17A3F",
"g. c #DB5640",
"h. c #F07A40",
"j. c #F77D43",
"k. c #FC7D42",
"l. c #AE8400",
"z. c #E6863B",
"x. c #E7823C",
"c. c #E78B3C",
"v. c #F5873E",
"b. c #F48A3E",
"n. c #E7973A",
"m. c #E7913C",
"M. c #E8943B",
"N. c #E8953B",
"B. c #E79C3B",
"V. c #E69D3B",
"C. c #E79D3B",
"Z. c #E59F3B",
"A. c #E69B3C",
"S. c #E89D3C",
"D. c #E6A13A",
"F. c #E6A33A",
"G. c #E5A63B",
"H. c #E8A63A",
"J. c #EBA63B",
"K. c #E4A93A",
"L. c #E6A83B",
"P. c #E5AE39",
"I. c #E5AD3B",
"U. c #E5AE3A",
"Y. c #E5AF3A",
"T. c #E8AB3B",
"R. c #ECA83D",
"E. c #E3B237",
"W. c #E4B13B",
"Q. c #E6B03A",
"!. c #E7B03B",
"~. c #E5B23B",
"^. c #E7B23B",
"/. c #E2B538",
"(. c #E7B43B",
"). c #E6B63A",
"_. c #E6B73A",
"`. c #E6B23C",
"'. c #E8B53A",
"]. c #E8B83B",
"[. c #EEB93F",
"{. c #ECB543",
"}. c #EEB840",
"|. c #EFBB41",
" X c #ECB843",
".X c #F5B349",
"XX c #F3B649",
"oX c #F0BA48",
"OX c #F0BB48",
"+X c #6E7A81",
"@X c #777D85",
"#X c #7A848B",
"$X c #908F8E",
"%X c #9A958B",
"&X c #999897",
"*X c #9F9D97",
"=X c #9B9B9B",
"-X c #A4A4A4",
";X c #A5A5A5",
":X c #ABAAA9",
">X c #AEAEAE",
",X c #B2B2B2",
"<X c #B9BABA",
"1X c #BBBBBB",
"2X c #B5BAC0",
"3X c #B5BBC2",
"4X c #BBBFC3",
"5X c #C3C3C3",
"6X c #C8C8C8",
"7X c gray79",
"8X c #CBCBCB",
"9X c gray82",
"0X c LightGray",
"qX c #D7D8D9",
"wX c #DCDAD9",
"eX c #DEDEDF",
"rX c #E4E3E2",
"tX c #E7E7E7",
"yX c gray91",
"uX c #E9E9E9",
"iX c #EEEEEE",
"pX c gray94",
"aX c #F1F1F1",
"sX c gray95",
"dX c #F3F3F3",
"fX c #F4F4F4",
"gX c gray96",
"hX c #F6F5F5",
"jX c #FFFEFD",
"kX c #FFFFFE",
"lX c white",
/* pixels */
"                                                  ",
"                    . .                           ",
"                  . . . .     . .                 ",
"                . . u p .   . . . .               ",
"              . . y n l . . . < x . .             ",
"            . . . z g.Y . . a Q i . . .           ",
"          . . . & j W L . . T ` . . . . .         ",
"        . . 4 , . b E > . . I O.e @ 4 . . .       ",
"        . . m v q ~ k.) 6 . P j.| c M o . . .     ",
"      . . % t [ h.x.y.d./ . H h.r.O.k % . 2 . .   ",
"      . : . $ ) ;.D.S.>.h.! K p.0.{ -   1 B * . . ",
"    . . N 3 / p.=.V.].m.-.5.5.5.5.i.' @ w #.; . . ",
"    . . { >.5.7.S.^.Q.n.=.0.0.7.c.G.=.#.>.+.= . . ",
"    . .  .s.G.z.A._.^.].N.&.m.V.x._.D.r.$.7 . .   ",
"    . . 8 ] J.I.I.W.Q.Q.I.G.I.I.L._.L.0.:.. .     ",
"      . . ( R./.{.oX[.[.OX|.[.OX XE.R.O.r . .     ",
"      . .  .v..Xl.9 S A s Z S 0 F XXb.$.. .       ",
"      . . G R V %X3Xf g 4X@Xd <X*XC U K . .       ",
"        . . . +XqXlX$X&XlX:Xh lXeX#X. . . .       ",
"          . . wXgXtX<X1XpX5X,XtXfXrX. .           ",
"          . . =XuXiXgXfXiXgXgXsXuX;X. .           ",
"            . . ;X0X6X7X8X8X6X9X>X. . .           ",
"              . . . . . . . . . . . .             ",
"                . . . . . . . . . .               ",
"                                                  "
};
