/* XPM */
static char *_92ded0148024897c6226c26a4fa0606KhG3ALkAarGKD94B[] = {
/* columns rows colors chars-per-pixel */
"25 25 101 2 ",
"   c None",
".  c #191717",
"X  c #22201F",
"o  c #252222",
"O  c #292626",
"+  c #2B2827",
"@  c #2C2929",
"#  c #312E2D",
"$  c #363332",
"%  c #393635",
"&  c #3C3837",
"*  c #3E3A39",
"=  c #413C3C",
"-  c #45403F",
";  c #464241",
":  c #494443",
">  c #4E4947",
",  c #4F4A49",
"<  c #534E4C",
"1  c #56504F",
"2  c #575150",
"3  c #5B5554",
"4  c #5F5857",
"5  c #625B5A",
"6  c #67605F",
"7  c #6B6462",
"8  c #6F6866",
"9  c #706967",
"0  c #746C6B",
"q  c #78706E",
"w  c #7D7573",
"e  c #817977",
"r  c #857C7B",
"t  c #8A817F",
"y  c #8D8482",
"u  c #918785",
"i  c #938987",
"p  c #958B89",
"a  c #998E8C",
"s  c #9B918E",
"d  c #9D9391",
"f  c #A19693",
"g  c #A49896",
"h  c #A69B99",
"j  c #AA9E9C",
"k  c #ACA19E",
"l  c #AFA3A0",
"z  c #B2A5A3",
"x  c #B5A9A6",
"c  c #B7ABA8",
"v  c #B9ADAA",
"b  c #BEB1AF",
"n  c #BFB2B0",
"m  c #C2B5B2",
"M  c #C6B9B6",
"N  c #C9BBB9",
"B  c #C9BCB9",
"V  c #CABCB9",
"C  c #CABDBA",
"Z  c #CBBDBB",
"A  c #CBBEBB",
"S  c #CDBFBC",
"D  c #CEC0BD",
"F  c #CFC1BE",
"G  c #D0C2BF",
"H  c #D1C2C0",
"J  c #D1C3C1",
"K  c #D3C4C1",
"L  c #D3C5C2",
"P  c #D4C6C3",
"I  c #D5C7C4",
"U  c #D7C9C6",
"Y  c #D9CAC7",
"T  c #DACCC8",
"R  c #DBCCC9",
"E  c #DDCECB",
"W  c #E0D1CE",
"Q  c #E3D3D0",
"!  c #E4D4D1",
"~  c #E4D5D1",
"^  c #E5D6D2",
"/  c #E6D7D3",
"(  c #E7D8D4",
")  c #E9DAD6",
"_  c #EADAD7",
"`  c #EBDBD7",
"'  c #EEDEDA",
"]  c #EFDFDB",
"[  c #F1E1DD",
"{  c #F2E2DE",
"}  c #F3E3DF",
"|  c #F5E4E0",
" . c #F8E8E4",
".. c #F9E9E5",
"X. c #FAE9E5",
"o. c #FAEAE6",
"O. c #FBEAE6",
"+. c #FDECE8",
"@. c #FEEDE9",
"#. c #FFEFEB",
"$. c #FFF1ED",
/* pixels */
"                                                  ",
"                      2 : = % o                   ",
"                    2 G ( N x < X                 ",
"                  o b #.| x Z j 6 * o             ",
"                  1 P $.] x s h ! k $ o           ",
"            1 4 5 B #./ J S d p k f : #           ",
"        ; 5 m ) T | X.m v B i i y 8 : % o         ",
"        4 v ..m x ] #.I W D y y p w < : @         ",
"      8 v X.R z Y ..` x ! J u u y y 7 : @         ",
"      r +.{ j h ` G m m R S y i r w 0 < @         ",
"      r +./ r g [ M c v b J h i p 0 r 7 % o       ",
"      r  .Y i e Y ) v a s U P m N a y 7 : @       ",
"    7 g P W g w V M u u h G v b B M j 0 ; +       ",
"    7 m Y B u w f a u t g N a i j a y y 2 +       ",
"  ; 7 m m a 7 8 h m h l g M a u i w 4 0 5 % o     ",
"  3 x D y r 4 r P R z l p p 8 a u y w q q 1 O     ",
"  2 B k u 0 ; s b k s y i r w d s s d q q 4 O     ",
"  & i t y 5 < y s u t i s y 8 y p a p u y 4 & o   ",
"  O 5 r q > 5 t x m p s d i t z k l u d 0 > : O   ",
"  # 7 7 e 2 5 k P z p y y t d m x P u 9 4 ; ; o   ",
"  O : > 6 5 4 s g 9 w e 6 e u a i x u > , : @     ",
"    o o @ @ * w p e e 6 q a B v 0 4 3 ; : #       ",
"          . # < 1 0 w 0 r v D j > ; ; $ O         ",
"            o X o @ # # # * = $ o o o             ",
"                                                  "
};
