/* XPM */
static char *_1629_926fc51b2d556c9605548bb799e54d989e1e7c2dfa0152ba1a53f9a90dda5221[] = {
/* columns rows colors chars-per-pixel */
"25 25 191 2 ",
"   c #000001",
".  c #04080B",
"X  c #1E0000",
"o  c #1A0800",
"O  c #00021D",
"+  c #000E1C",
"@  c #000012",
"#  c #041819",
"$  c #1F1D1D",
"%  c #280000",
"&  c #360B04",
"*  c #320704",
"=  c #3B1700",
"-  c #251A16",
";  c #391917",
":  c #3C2400",
">  c #2F251E",
",  c #3C2816",
"<  c #031C26",
"1  c #211B20",
"2  c #012530",
"3  c #132329",
"4  c #252829",
"5  c #3A2C24",
"6  c #3D3426",
"7  c #3C332B",
"8  c #3F3D39",
"9  c #540000",
"0  c #43170B",
"q  c #43180F",
"w  c #461B13",
"e  c #7C1800",
"r  c #6D1D13",
"t  c #7D1611",
"y  c #55241E",
"u  c #44331F",
"i  c #7E2306",
"p  c #6B231F",
"a  c #6B2204",
"s  c #5A2722",
"d  c #453523",
"f  c #483521",
"g  c #423B38",
"h  c #583432",
"j  c #7E3127",
"k  c #43403E",
"l  c #594A39",
"z  c #6D5338",
"x  c #674E38",
"c  c #083443",
"v  c #09485B",
"b  c #344C58",
"n  c #004C65",
"m  c #045468",
"M  c #045F7B",
"N  c #395260",
"B  c #0D6376",
"V  c #4A4643",
"C  c #525353",
"Z  c #7B6242",
"A  c #776149",
"S  c #425A74",
"D  c #8F0000",
"F  c #9A0A00",
"G  c #9D1C00",
"H  c #BC0000",
"J  c #942D07",
"K  c #8B260F",
"L  c #BD3A06",
"P  c #8D3A2A",
"I  c #983A33",
"U  c red",
"Y  c #C0331E",
"T  c #FF3734",
"R  c #EE2A34",
"E  c #984434",
"W  c #835A2C",
"Q  c #AE412E",
"!  c #B54838",
"~  c #BA533D",
"^  c #B14931",
"/  c #C8411E",
"(  c #C44936",
")  c #FB493F",
"_  c #BF4F43",
"`  c #B95643",
"'  c #BD5946",
"]  c #B95B4A",
"[  c #AC5445",
"{  c #8F6C4B",
"}  c #826448",
"|  c #916D4A",
" . c #846F53",
".. c #947353",
"X. c #997552",
"o. c #B1614B",
"O. c #A87F59",
"+. c #847C6A",
"@. c #BA716E",
"#. c #A27C77",
"$. c #DC4D45",
"%. c #F25046",
"&. c #F35F56",
"*. c #F8474B",
"=. c #CC6853",
"-. c #CB725D",
";. c #D2725D",
":. c #D5674F",
">. c #C27D61",
",. c #D37F64",
"<. c #E96E60",
"1. c #E67864",
"2. c #FD716A",
"3. c #EF7D7A",
"4. c #FF7773",
"5. c #A8825A",
"6. c #978666",
"7. c #9D926F",
"8. c #A68966",
"9. c #AE916D",
"0. c #BF9164",
"q. c #BF9B73",
"w. c #B28962",
"e. c #BCA47C",
"r. c #D08B64",
"t. c #C89A69",
"y. c #D19E6B",
"u. c #C89C70",
"i. c #DA9C75",
"p. c #ED866F",
"a. c #E99675",
"s. c #D3A271",
"d. c #D7AA7D",
"f. c #E2AD7C",
"g. c #E5B17D",
"h. c #056B8C",
"j. c #107093",
"k. c #147EA1",
"l. c #087DA3",
"z. c #64779D",
"x. c #0085A9",
"c. c #1D91BD",
"v. c #1D8CB4",
"b. c #2088A5",
"n. c #5F8291",
"m. c #5F87AE",
"M. c #5A8CB2",
"N. c #0499C9",
"B. c #0095C7",
"V. c #1796C3",
"C. c #0AA6D9",
"Z. c #01AADE",
"A. c #05A6D3",
"S. c #11A2D4",
"D. c #11A5CB",
"F. c #01AEE2",
"G. c #0EAEE2",
"H. c #04B3E7",
"J. c #01CBFC",
"K. c #06DCFF",
"L. c #11D8FF",
"P. c #BBB591",
"I. c #CE938F",
"U. c #ED8D8B",
"Y. c #F29996",
"T. c #D2AD82",
"R. c #DFB98C",
"E. c #DBB284",
"W. c #D0BD91",
"Q. c #EAB989",
"!. c #F4A19F",
"~. c #F7B58E",
"^. c #C6A6A3",
"/. c #E0ACA8",
"(. c #F7B1AB",
"). c #CCCC9E",
"_. c #F9C48F",
"`. c #ECC593",
"'. c #FFCE9B",
"]. c #F6C894",
"[. c #FFD19D",
"{. c #FFD8A5",
"}. c #FFECB3",
"|. c #FFF8BF",
" X c #C9C2C1",
".X c #F7C3C3",
"XX c #DBE1DF",
"oX c #FFFFC4",
"OX c #DEEDED",
"+X c #F0E5E5",
"@X c None",
/* pixels */
"@X@X@X@X@X@X@X@X@X@X@X@X@X@X@X@X@X@X@X@X@X@X@X@X@X",
"@X@X@X@X@X@X@X@X@X@X@X@X@X@X@X@X@X@X@X@X@X@X@X@X@X",
"@X@X@Xy h C g ; @X@Xw q 0 ; s s s s @X@X@X@X@X@X@X",
"@X  h &.Y.OX^.D 9 @ E ~ ^ ] -.$.U H   @X@X@X@X@X@X",
"@X@Xh I @.(./. X#.e ! _ ] ' %.p.{.I.K s @X@X@X@X@X",
"@X@X@X  P *.!.+XI./ ` ` ] ' *.U.XX^.L I t p @X@X@X",
"@X  q J _ 4.2.2.*.R ( Q ! ' ;.:.:.Q i R T K   @X@X",
"@X  q J ^ 1.<.$.~.{.Q.d.i.r.' =.p.,.=.( Y r   @X@X",
"@X  ; i P [ >.i.W.).].{.`.d.P ] a.-.o.E a 0 @X@X@X",
"@X@X@X  #   7.oX6.  T.'.'.Q.  z t.Z       @X@X@X@X",
"@X@X@X@X    6.}.6.  E.[.'.Q.  z s.{   , @X@X@X@X@X",
"@X@X@X@XA 9.8.u.8...E._.].E.Z { | x     @X@X@X@X@X",
"@X@X@X   .[.9.  w.f.s.y.s.u.0.O.  - g 5 6 @X@X@X@X",
"@X          1 V 7 , d d f d 5 5 O | g.Q.].A   @X@X",
"@X  6 O.9.P.+.O 4 < < < < +   o $ x X.d.].T.q.d @X",
"@X  l f.`.}.P.  8 V V V k 8 b b N c   ..s.Q.`.6   ",
"@X  l f.g.Q.5.  % % & : = b C.Z.F.b.X 4 -   . @X@X",
"@X@X@X} } W n.A.D.S.V.c.v.c.F.Z.F.l.  + @X@X@X@X@X",
"@X@X@X      x.K.J.J.A.N.H.H.F.A.N.j.  @X@X@X@X@X@X",
"@X@X@X@X@X% b.L.G.C.v   A.F.G.S.V.h.  @X@X@X@X@X@X",
"@X@X@X@X@X@Xm B m n 2 . v M F.F.B.h.  @X@X@X@X@X@X",
"@X@X@X@X@X@X@X        #   4 M.M.z.S   @X@X@X@X@X@X",
"@X@X@X@X@X@X@X@X@X@X@X@X+ * F F G e . @X@X@X@X@X@X",
"@X@X@X@X@X@X@X@X@X@X@X@X@X@X; - - ; @X@X@X@X@X@X@X",
"@X@X@X@X@X@X@X@X@X@X@X@X@X@X@X. . @X@X@X@X@X@X@X@X"
};
