/* XPM */
static char *_710_3204cb88983c44d1d3a12aba94bd30226a56e98bc3b3abac14f7490ef9d6d7b5[] = {
/* columns rows colors chars-per-pixel */
"25 25 184 2 ",
"   c #000000",
".  c #00030E",
"X  c #00090C",
"o  c #150000",
"O  c #00100D",
"+  c #000114",
"@  c #000118",
"#  c #001A1B",
"$  c #171617",
"%  c #240100",
"&  c #3C0800",
"*  c #231217",
"=  c #2E1C1F",
"-  c #261B17",
";  c #3D2B13",
":  c #3E2F1D",
">  c #00012A",
",  c #000023",
"<  c #011623",
"1  c #001B24",
"2  c #2E1D21",
"3  c #002F31",
"4  c #013A3D",
"5  c #14393B",
"6  c #272727",
"7  c #322023",
"8  c #352F29",
"9  c #3D3324",
"0  c #3C322A",
"q  c #363535",
"w  c #3B3B3C",
"e  c #393737",
"r  c #420800",
"t  c #540000",
"y  c #471708",
"u  c #431F1A",
"i  c #581F11",
"p  c #6E0000",
"a  c #7B0000",
"s  c #601C0A",
"d  c #412218",
"f  c #533617",
"g  c #493008",
"h  c #72220C",
"j  c #6C2614",
"k  c #7F2D17",
"l  c #7E301D",
"z  c #453E2B",
"x  c #473F39",
"c  c #5D3934",
"v  c #7E3428",
"b  c #4C432E",
"n  c #46413D",
"m  c #474137",
"M  c #584736",
"N  c #5E513B",
"B  c #644E38",
"V  c #76583A",
"C  c #00354A",
"Z  c #1D3A44",
"A  c #3F3F40",
"S  c #02475C",
"D  c #2B4143",
"F  c #3F4040",
"G  c #364C58",
"H  c #38505D",
"J  c #404040",
"K  c #595244",
"L  c #685542",
"P  c #75664E",
"I  c #7F6E54",
"U  c #747662",
"Y  c #8B0000",
"T  c #950000",
"R  c #9B0200",
"E  c #9B0800",
"W  c #AC0000",
"Q  c #A11A1A",
"!  c #882C14",
"~  c #9D2E17",
"^  c #A4381A",
"/  c #853523",
"(  c #B02A23",
")  c #AF3E2A",
"_  c #CD322F",
"`  c #E22530",
"'  c #FF3832",
"]  c #A34218",
"[  c #9D432F",
"{  c #884433",
"}  c #AF4632",
"|  c #B94C3C",
" . c #BB543F",
".. c #C1553F",
"X. c #FF3C42",
"o. c #904F4A",
"O. c #B95945",
"+. c #AF4F49",
"@. c #966E51",
"#. c #9C7552",
"$. c #8D704F",
"%. c #BD6C4D",
"&. c #BB7557",
"*. c #937E61",
"=. c #C65248",
"-. c #E8534F",
";. c #F15C56",
":. c #D86648",
">. c #C46855",
",. c #D96456",
"<. c #CC7859",
"1. c #E86A5A",
"2. c #F46757",
"3. c #FB6964",
"4. c #E77964",
"5. c #F57F7B",
"6. c #E66460",
"7. c #AB835C",
"8. c #B3875E",
"9. c #B28959",
"0. c #B9895D",
"q. c #BB8862",
"w. c #B3926C",
"e. c #BC9167",
"r. c #B89872",
"t. c #A98560",
"y. c #B9A17C",
"u. c #C1855F",
"i. c #C7996B",
"p. c #DC8A6D",
"a. c #FF826B",
"s. c #E98A74",
"d. c #DCAB7A",
"f. c #D9A876",
"g. c #E5B17E",
"h. c #4F7399",
"j. c #557EA5",
"k. c #1D8BB3",
"l. c #5C8AB3",
"z. c #589CBE",
"x. c #0099CA",
"c. c #0096C7",
"v. c #1799C2",
"b. c #0DAADE",
"n. c #03A6DA",
"m. c #16A4D3",
"M. c #11AADC",
"N. c #15A5D6",
"B. c #00AFE4",
"V. c #00B1E6",
"C. c #00B3E8",
"Z. c #0CBDE8",
"A. c #5CA4CA",
"S. c #60A8CE",
"D. c #00CCFB",
"F. c #07C6F3",
"G. c #11C8F7",
"H. c #00D4FF",
"J. c #ABA9A9",
"K. c #D49D94",
"L. c #F09B98",
"P. c #DAAE82",
"I. c #D9B286",
"U. c #D3B590",
"Y. c #D6A49F",
"T. c #E8B684",
"R. c #F1BC87",
"E. c #F7ABA5",
"W. c #DBC89C",
"Q. c #EDC799",
"!. c #FAC693",
"~. c #FDCA97",
"^. c #FDCE9B",
"/. c #F3C492",
"(. c #FFD19D",
"). c #FCDFAA",
"_. c #FFE1A9",
"`. c #FFEBB6",
"'. c #FFF2BB",
"]. c #D1D4D3",
"[. c #F0DCDD",
"{. c #E2DAD8",
"}. c #FDECEC",
"|. c None",
/* pixels */
"|.|.|.  3     5 1 |.|.# D 5 3 4 C # |.|.|.|.|.|.|.",
"|.|.|.+.+.J.J.p t D c / l l { { W W |.|.|.|.|.|.|.",
"|.|.  ,.3.}.}.+.o.% v  . . .,.1.3.;.; & |.|.|.|.|.",
"|.|.|.2   6.5.{.].^ O. . .=.-.-.[.{.O.)   |.|.|.|.",
"|.|.X j h ,.4.E.L.` _ ) | | :.1.Y.K.} ) _ Q   |.|.",
"|.|.  ! ^ O.>.;.2.a.p.&.>.%.>.>.:.:.! ~ ' (   |.|.",
"|.|.  ! ~ o d =.p.'._.~.T.f.<.} s.s.$ r ^ j   |.|.",
"|.|.|.i i   K Q.U.U y.^.~./.@.t u.u.$ % s y |.|.|.",
"|.|.|.|.O   K `.W.  #.).!.^.P   9.9.*     |.|.|.|.",
"|.|.|.|.|.  M /.I.  *.(.!.^.P   0.0.$   |.|.|.|.|.",
"|.|.|.|.|.  - N $.d.d.R.R.R.e.7.V z     |.|.|.|.|.",
"|.|.|.|.  6 6   x e.t.7.7.7.#.@.0 @ 6 $   |.|.|.|.",
"|.|.|.b q e e n 8               q w e 8 9 z |.|.|.",
"|.|.  I.R.N < e w J n n n n n x w w @ P (.w.  |.|.",
"|.|.  T.(.L @ 8 0 A A F F F w w 0 0 . $._.r.  |.|.",
"|.M b I.!.B < H G q w F A A w e G G . P (.r.b N |.",
"  r.(.T.f.f C N.v.& 9 ; ; ; d y m.m., V g.g.(.w.  ",
"  w.!.g.d.f C N.b.k.k.k.k.k.k.k.n.m., V R.g.!.7.  ",
"  #.i.e.e.g C M.C.C.V.V.V.V.V.V.C.N.> B i.e.i.$.  ",
"|.|.    X   S G.Z.M.b.b.b.b.b.M.G.F.<         |.|.",
"|.|.|.|.|.  S H.F.V.n.c.x.x.B.V.H.F.<   |.|.|.|.|.",
"|.|.|.|.|.  Z A.A.l.j.h.h.h.l.l.A.z.$   |.|.|.|.|.",
"|.|.|.|.|.. & T R E Y a a a T E R Y o   |.|.|.|.|.",
"|.|.|.|.|.|.|.7 2 2 - * * * = = 7 2 |.|.|.|.|.|.|.",
"|.|.|.|.|.|.|.|.+ . X X X . . . + |.|.|.|.|.|.|.|."
};
