/* XPM */
static char *_1105_a391d56c944e935077d7dfc5d5a8692ce2043506e866745a0652edb43f42e330[] = {
/* columns rows colors chars-per-pixel */
"25 25 189 2 ",
"   c #000000",
".  c #0B0402",
"X  c #00000A",
"o  c #140100",
"O  c #130F0D",
"+  c #1E171E",
"@  c #111218",
"#  c #220302",
"$  c #2A0200",
"%  c #270B05",
"&  c #370604",
"*  c #271A04",
"=  c #3A180D",
"-  c #281D1D",
";  c #371F14",
":  c #360715",
">  c #3B2200",
",  c #282011",
"<  c #34281A",
"1  c #392916",
"2  c #000023",
"3  c #031B22",
"4  c #1E1A21",
"5  c #271921",
"6  c #01202B",
"7  c #052B37",
"8  c #1B2C33",
"9  c #1F2632",
"0  c #09353E",
"q  c #2A2927",
"w  c #202B2E",
"e  c #302625",
"r  c #3A3125",
"t  c #2D2E33",
"y  c #233033",
"u  c #2D3235",
"i  c #323333",
"p  c #3A3534",
"a  c #3E3C3C",
"s  c #37393B",
"d  c #4A0700",
"f  c #560700",
"g  c #4D190E",
"h  c #401200",
"j  c #4B1F16",
"k  c #5A1C1D",
"l  c #660000",
"z  c #671D0F",
"x  c #7C1F10",
"c  c #6A1515",
"v  c #4A2600",
"b  c #5F2006",
"n  c #522016",
"m  c #57261C",
"M  c #4B2317",
"N  c #6B2009",
"B  c #772917",
"V  c #722B1C",
"C  c #5A2D23",
"Z  c #413120",
"A  c #42393A",
"S  c #682D25",
"D  c #6F302D",
"F  c #723020",
"G  c #7A3527",
"H  c #5E462C",
"J  c #584737",
"K  c #7A4036",
"L  c #6E553A",
"P  c #003F54",
"I  c #063542",
"U  c #383747",
"Y  c #05485D",
"T  c #30404A",
"R  c #014C62",
"E  c #0B546D",
"W  c #1E5E78",
"Q  c #30596F",
"!  c #0D607B",
"~  c #444142",
"^  c #785F46",
"/  c #4C5A72",
"(  c #990000",
")  c #980500",
"_  c #911700",
"`  c #841816",
"'  c #AD1E1F",
"]  c #892A12",
"[  c #862C16",
"{  c #9A3216",
"}  c #89331C",
"|  c #85382B",
" . c #993925",
".. c #903D3A",
"X. c #993E32",
"o. c #A53F29",
"O. c #A63E26",
"+. c #B93823",
"@. c #D02F21",
"#. c #FF3434",
"$. c #96422E",
"%. c #984432",
"&. c #A5422A",
"*. c #AB442D",
"=. c #AF4833",
"-. c #A24935",
";. c #B44C36",
":. c #B54E39",
">. c #BB4E3D",
",. c #B34634",
"<. c #B3543D",
"1. c #BA523C",
"2. c #A65139",
"3. c #976C38",
"4. c #C34F3F",
"5. c #965043",
"6. c #AE5947",
"7. c #BA5542",
"8. c #B85846",
"9. c #846446",
"0. c #876A4D",
"q. c #9D7C5B",
"w. c #967556",
"e. c #936D48",
"r. c #BB6448",
"t. c #BF6251",
"y. c #C45E4B",
"u. c #CC5B4A",
"i. c #CC5846",
"p. c #D45245",
"a. c #FC4B4D",
"s. c #EB5951",
"d. c #C9614D",
"f. c #CA6651",
"g. c #C76953",
"h. c #CD6A55",
"j. c #D76657",
"k. c #D5715B",
"l. c #D8705B",
"z. c #E66A5F",
"x. c #FA605B",
"c. c #E1705E",
"v. c #D97B63",
"b. c #E76962",
"n. c #F46E66",
"m. c #E27161",
"M. c #EF7366",
"N. c #F8756B",
"B. c #AD865E",
"V. c #B08A62",
"C. c #A78463",
"Z. c #CD8D66",
"A. c #CD9E6F",
"S. c #D3986E",
"D. c #C29F77",
"F. c #EE8B72",
"G. c #CEA87B",
"H. c #D8A877",
"J. c #E1AF7D",
"K. c #E7B07C",
"L. c #007698",
"P. c #047CA5",
"I. c #747A9E",
"U. c #6E6987",
"Y. c #0185AC",
"T. c #1583AD",
"R. c #008DBB",
"E. c #0689B3",
"W. c #7385AA",
"Q. c #748AB0",
"!. c #0C95C4",
"~. c #009CC9",
"^. c #1F97C1",
"/. c #1999C6",
"(. c #1FA0CB",
"). c #02A5DA",
"_. c #18ABD8",
"`. c #1EB2D8",
"'. c #00AFE5",
"]. c #14AFE3",
"[. c #03B2E6",
"{. c #00B5EC",
"}. c #01BBEB",
"|. c #0CB2E4",
" X c #04C5F6",
".X c #00D3FF",
"XX c #EBBB88",
"oX c #FFCF97",
"OX c None",
/* pixels */
"OXOXOXOXOXOXOXOXOXOXOXOXOXOXOXOXOXOXOXOXOXOXOXOXOX",
"OXOXOXOXOXOXOXOXOXOXOXOXOXOXOXOXOXOXOXOXOXOXOXOXOX",
"OXOXOXOXOXOXOXOXOXOX        OXOXOXOX      OXOXOXOX",
"OXOXOXOXOXOXOXOXOXS S n n n M OX= g m S D D OXOXOX",
"OXOXOXOXOXOX    C 6.h.7.1.1.%.% f  .y.l.N.b...  OX",
"OXOXOXOX% F -.6.y.s.s.u.-.G F $.2.u.z.b.8...OXOXOX",
"OXOXOXc `  .,.f.l.x.s.i.%.S | p.j.m.M.z.S o OXOXOX",
"OXOX& ' #.@.{ 8.l.k.h.1.,.1.p.a.x.n.m.f.;.[ d X OX",
"OXOX# x +.+.,.Z.F.h.r.S.S.h.u.4.j.c.M.n.>.] d X OX",
"OXOXOXh N  .4.k.v.8.r.Z.Z.f.8.&.<.f.j.z.X.c & OXOX",
"OXOXOXOX% G :.:.,.:.:.,.,.;.*.{ *.:.:.-.j . OXOXOX",
"OXOXOXOXOX1 m } O.;.:.&.{ { &.1.O.*.y.k.k   OXOXOX",
"OXOXOXOXOXOX  & B  .O.z | 6.1.*.[ V | 5.w.e.L OXOX",
"OXOXOXOXOXH H r & B [ $ K t.d.] g O   Z H.G.e.  OX",
"OXOX    1 V.H.C.2 < % o o $ % # e p i ~ H.A.9.  OX",
"OXw.D.G.V.q.0.J o q y i u w 8 w s s t i 0.9.OXOXOX",
"  C.XXoXK.e.> P Q T s J T A A a p i e , X   OXOXOX",
"  9.A.XXJ.3.A R._.W 5 = 1 > 1 r < * * , OXOXOXOXOX",
"OXOX^ 0.^ v 9 E.|._._.`.`.(.^.^.T./.!.E.E OXOXOXOX",
"OXOXOX      0 E.}. X.X.X[.~.~.{.}.{.).!.E 6 OXOXOX",
"OXOXOXOXOXOXI Y.[.}. X|.P.7 ! _.]._./.T.R 3 OXOXOX",
"OXOXOXOXOXOXOXP Y Y Y R 7 7 L.{.{.[.).R.R 3 OXOXOX",
"OXOXOXOXOXOXOXOX      .   9 / W.Q.W.I.U.U @ OXOXOX",
"OXOXOXOXOXOXOXOXOXOXOXOXOX: l ( ( ( ) _ f % OXOXOX",
"OXOXOXOXOXOXOXOXOXOXOXOXOXOXOX5 4 4 + - OXOXOXOXOX"
};
