/* XPM */
static char *b56f70c66b2f4f05f13948ae8b84f9a0wJVdgLftvQuWdnt0[] = {
/* columns rows colors chars-per-pixel */
"25 25 99 2 ",
"   c None",
".  c #426FBE",
"X  c #5E7EC6",
"o  c #6684C6",
"O  c #6684C7",
"+  c #6A81C4",
"@  c #6A83C7",
"#  c #6F86C6",
"$  c #6F87C7",
"%  c #6F87C8",
"&  c #6F88C8",
"*  c #6C8DCF",
"=  c #7087C7",
"-  c #7087C8",
";  c #7088C8",
":  c #7189C8",
">  c #7088C9",
",  c #7288C8",
"<  c #738AC9",
"1  c #718FC9",
"2  c #758CCA",
"3  c #738FCC",
"4  c #7393CB",
"5  c #7596CB",
"6  c #7795CC",
"7  c #7996CC",
"8  c #809FD0",
"9  c #80A0D0",
"0  c #82A3D2",
"q  c #88A3D1",
"w  c #8AA3D3",
"e  c #89A6D7",
"r  c #89A3DE",
"t  c #8FAADD",
"y  c #94ACD7",
"u  c #92AADD",
"i  c #91B0D8",
"p  c #97B0DB",
"a  c #95B0DC",
"s  c #9DB6DD",
"d  c #A5B0DA",
"f  c #A9B3DB",
"g  c #A1BBDE",
"h  c #859FE7",
"j  c #9BB5E1",
"k  c #9BB4E5",
"l  c #99B6EB",
"z  c #9CB8E8",
"x  c #8CABF1",
"c  c #9BB6F7",
"v  c #A1B9E3",
"b  c #A2B8E2",
"n  c #A5BBE0",
"m  c #A6BDE1",
"M  c #A5BFE8",
"N  c #A8BBE8",
"B  c #B6BDE0",
"V  c #ACC2E4",
"C  c #B4C7E7",
"Z  c #BCC4E4",
"A  c #B3CBEA",
"S  c #BACDEE",
"D  c #BECCEE",
"F  c #B9D1EE",
"G  c #ABC9FF",
"H  c #AFCFFF",
"J  c #BBCCF6",
"K  c #BCD5F0",
"L  c #B5D5FF",
"P  c #C0CAEB",
"I  c #C6CAE8",
"U  c #C4D1EF",
"Y  c #C8D1ED",
"T  c #D1D4ED",
"R  c #DBDBEF",
"E  c #C5D1F1",
"W  c #C0D5F0",
"Q  c #C9D6F3",
"!  c #CCD4F2",
"~  c #CFD7F3",
"^  c #CED4F7",
"/  c #CADAF3",
"(  c #CFDBF2",
")  c #CEDDF7",
"_  c #C3D1F9",
"`  c #C4D2FB",
"'  c #D0D7F2",
"]  c #D1DCF3",
"[  c #D0DDF3",
"{  c #D5DDF3",
"}  c #D0DEF5",
"|  c #D5DFF4",
" . c #D7DEF5",
".. c #D6DEF7",
"X. c #DCDDF1",
"o. c #D1E5F9",
"O. c #E0E4F6",
"+. c #E6E9F9",
"@. c #FAFFFF",
/* pixels */
"                                                  ",
"                                                  ",
"                                                  ",
"                                                  ",
"                % & % % <                         ",
"        X # h < - < % < # % # < %         2       ",
"      K ` O                         <       x     ",
"      z @.{  .                            S u     ",
"          !       n C B Z ^ T X.X.+.] ] o.P       ",
"              + 3 s V o.Q  .~ ~ E W               ",
"            c +       O .         r               ",
"            u     O.I d f         Y N             ",
"                  _ P ( } / ) U J v               ",
"                1 *                               ",
"                  a v                             ",
"                        l L k e                   ",
"                    y w         w                 ",
"                    m a     F A M g               ",
"                        H G j i                   ",
"                        6 4 5                     ",
"                        7 9 0                     ",
"                        9 9                       ",
"                                                  ",
"                                                  ",
"                                                  "
};
