/* XPM */
static char *a5664f5d42e747f4c3aee7f59544d479mf3Qg4MplqJF0NTa[] = {
/* columns rows colors chars-per-pixel */
"25 25 86 1 ",
"  c None",
". c #5D77C0",
"X c #6981C5",
"o c #6C84C6",
"O c #6F88C8",
"+ c #6F88CB",
"@ c #6C8ACB",
"# c #6F8CC8",
"$ c #6F8EC9",
"% c #7088C7",
"& c #7088C8",
"* c #7188C8",
"= c #7088C9",
"- c #7289C8",
"; c #728AC9",
": c #758AC9",
"> c #748EC9",
", c #768DCA",
"< c #738BCD",
"1 c #7691CB",
"2 c #7A95CC",
"3 c #7C99CE",
"4 c #7D9CCE",
"5 c #7998D6",
"6 c #7992D8",
"7 c #809FD2",
"8 c #859DDB",
"9 c #80A0CF",
"0 c #80A0D0",
"q c #89A1D7",
"w c #8AA3D6",
"e c #8DA5DB",
"r c #8DA9DA",
"t c #8FABDB",
"y c #91ABDA",
"u c #9BAEDE",
"i c #96B3D9",
"p c #99B0DB",
"a c #98B3DE",
"s c #9DB4DC",
"d c #AFB6DC",
"f c #A0BADF",
"g c #9AB2E3",
"h c #9DB5E7",
"j c #9FB7EA",
"k c #9BB9ED",
"l c #9BBCF4",
"z c #A0B6E4",
"x c #A3B8E1",
"c c #A1B8E2",
"v c #A6BDE1",
"b c #A1BCE7",
"n c #A7BEE4",
"m c #A5BCE6",
"M c #A6C0E4",
"N c #ABC4E5",
"B c #ABC3EA",
"V c #ACC3EA",
"C c #ADC7EA",
"Z c #AEC6EB",
"A c #B1C4E4",
"S c #B2C5EB",
"D c #B0C9EB",
"F c #B0C9EC",
"G c #B3CBEC",
"H c #B4CBEC",
"J c #B4CBED",
"K c #B6CEEF",
"L c #B7D0EC",
"P c #A3C1F3",
"I c #A8C2F1",
"U c #A6C1FE",
"Y c #AECAFF",
"T c #BBD4F3",
"R c #BCD4F0",
"E c #BDD9FF",
"W c #C2D9F5",
"Q c #D5DFF3",
"! c #DEE6F7",
"~ c #E4E6F7",
"^ c #E4E8F7",
"/ c #E0E7F8",
"( c #E7E9F9",
") c #E8E9F9",
"_ c #E8EBF9",
"` c #E5FFFF",
/* pixels */
"                         ",
"                         ",
"                         ",
"             OO-OO-O     ",
"    V@-            -6<>  ",
"   h`d       :-       .e ",
"    B!(         - Xo   E ",
"      Q^_)  ~       InK  ",
"        zuSA/       mYb  ",
"      g8+            U   ",
"      w             R    ",
"        pvJZ    NL       ",
"            s   >        ",
"                 cw0     ",
"             JJJFC       ",
"             tr          ",
"          i      y       ",
"          ff WTDbM       ",
"          9lkPac         ",
"            >5$          ",
"               12        ",
"              45         ",
"              0          ",
"                         ",
"                         "
};
