/* XPM */
static char *_43afdb1a5894956faa34d4597ab2891ZAN84jZQcRGlvKQw[] = {
/* columns rows colors chars-per-pixel */
"25 25 103 2 ",
"   c None",
".  c #6279BF",
"X  c #6378C1",
"o  c #637EC4",
"O  c #617DCC",
"+  c #6480C6",
"@  c #6982C5",
"#  c #6982C6",
"$  c #6C87C7",
"%  c #6E8DC6",
"&  c #6F87C8",
"*  c #7687C7",
"=  c #7088C8",
"-  c #7188C8",
";  c #7089C8",
":  c #7088C9",
">  c #7189C9",
",  c #7289C8",
"<  c #7289C9",
"1  c #728ACA",
"2  c #748BCA",
"3  c #748DCF",
"4  c #7590CA",
"5  c #7592CA",
"6  c #7793CE",
"7  c #7894CE",
"8  c #7B9BCF",
"9  c #7D9CCD",
"0  c #7E9DCF",
"q  c #7E9ECE",
"w  c #758FD2",
"e  c #7091D2",
"r  c #7793D2",
"t  c #7791D5",
"y  c #7A92D4",
"u  c #8999CF",
"i  c #8B9ACF",
"p  c #809DD1",
"a  c #829ED2",
"s  c #8EA3D7",
"d  c #8BA1DA",
"f  c #8AA6D8",
"g  c #8FA7DC",
"h  c #93A1D2",
"j  c #91A9DB",
"k  c #91AADF",
"l  c #9DB1DB",
"z  c #9DB6DC",
"x  c #8FAFE4",
"c  c #8CADE8",
"v  c #98B1E0",
"b  c #98B2E0",
"n  c #9AB2E0",
"m  c #98B1E3",
"M  c #99B2E3",
"N  c #9AB7E1",
"B  c #9CB5E2",
"V  c #9DB5E3",
"C  c #9FB5E2",
"Z  c #9FB7E5",
"A  c #9EB8E4",
"S  c #97B3EF",
"D  c #A2BBE0",
"F  c #A6BBE0",
"G  c #A1BAE5",
"H  c #A6BDE6",
"J  c #A3BBE9",
"K  c #A5BCEB",
"L  c #A9BAE8",
"P  c #A6C0E3",
"I  c #AAC2E9",
"U  c #ACC5E9",
"Y  c #BEC8E5",
"T  c #B8C5EA",
"R  c #B8C5ED",
"E  c #B1C8EB",
"W  c #B2C8EC",
"Q  c #B3C9EC",
"!  c #C4CDED",
"~  c #C9D2EC",
"^  c #C9D2EE",
"/  c #CAD5F6",
"(  c #CAD9F2",
")  c #CCDAF1",
"_  c #CEDAF3",
"`  c #CCDAF7",
"'  c #D3DCF2",
"]  c #D2DDF3",
"[  c #D4DEF2",
"{  c #D1DDF4",
"}  c #D7DDF5",
"|  c #D1E3F6",
" . c #D8E1F6",
".. c #DEE6F5",
"X. c #DEE7F9",
"o. c #D9E4FF",
"O. c #E1E4F7",
"+. c #E2E4F8",
"@. c #E5E7F9",
"#. c #EFF4FF",
"$. c #F2F6FF",
"%. c #F5FFFF",
"&. c #FBFFFF",
/* pixels */
"                                                  ",
"                                                  ",
"                                                  ",
"                                                  ",
"                                                  ",
"                      = = = = w w y = = 2         ",
"        @       = 2 =                 o o O b     ",
"      9 S                               G Y %.    ",
"        K _ ..|     h   u i             } $.R     ",
"            ( / { { +.@.+.$.o.~ U M @             ",
"                  x     g k N       $ y           ",
"                L !       . X *       = M         ",
"                R ` ~ ' X. . .' &.)   d           ",
"                  e s F W E Q l r 6               ",
"                                k a               ",
"                      B J G b B                   ",
"                    %     7 8                     ",
"                  z G         A D                 ",
"                      P U H b                     ",
"                        a c f                     ",
"                        9 5 5                     ",
"                          0 9                     ",
"                                                  ",
"                                                  ",
"                                                  "
};
