/* XPM */
static char *_c7c39fcec1347ebe760ac78437860754RfxIRYEtn56yiTn[] = {
/* columns rows colors chars-per-pixel */
"25 25 89 1 ",
"  c None",
". c #647CC2",
"X c #637CC4",
"o c #617FC6",
"O c #6680C5",
"+ c #6C84C7",
"@ c #6B84C8",
"# c #6F88C8",
"$ c #6F89C9",
"% c #7087C8",
"& c #7088C8",
"* c #7188C8",
"= c #7089C8",
"- c #7189C8",
"; c #7189C9",
": c #7289C9",
"> c #718ACA",
", c #728ACB",
"< c #708FC9",
"1 c #758DCB",
"2 c #7391C9",
"3 c #7994CD",
"4 c #7A96CC",
"5 c #7A97CC",
"6 c #7C9ACE",
"7 c #7791D7",
"8 c #7694D4",
"9 c #7A94DA",
"0 c #809ECF",
"q c #839DD3",
"w c #84A1D1",
"e c #86A3D1",
"r c #8AA3D7",
"t c #8EA6DD",
"y c #8DA8DA",
"u c #8EAADA",
"i c #93ABDC",
"p c #97AFDC",
"a c #98B0DB",
"s c #9BB5DD",
"d c #9DB4DC",
"f c #9DB6DC",
"g c #9DB4DE",
"h c #A2B5DF",
"j c #A1B8DE",
"k c #A1B8DF",
"l c #A3BCDF",
"z c #98B3E2",
"x c #9EB0E0",
"c c #9BB2E5",
"v c #9CB9E7",
"b c #9EBBEE",
"n c #9DBEF5",
"m c #A0B7E3",
"M c #A1B9E0",
"N c #A2BCE3",
"B c #A0B8E9",
"V c #A6BFEB",
"C c #A6BEED",
"Z c #AAC4E8",
"A c #ADC6EA",
"S c #AFC6EC",
"D c #B0C9E7",
"F c #B0CAE7",
"G c #B2C5E8",
"H c #B3CAE9",
"J c #B3CAEB",
"K c #B1C9EC",
"L c #B6CEEE",
"P c #B8D0EF",
"I c #AAC3F1",
"U c #A8C2F8",
"Y c #B4CCF1",
"T c #B6CEF0",
"R c #BCD4F1",
"E c #BCD5F2",
"W c #BFD6F4",
"Q c #C4D5EE",
"! c #CAD9F3",
"~ c #C1DEFF",
"^ c #DBEEFF",
"/ c #E2E6F6",
"( c #E3E6F7",
") c #E5E7F9",
"_ c #E2E8F8",
"` c #E6EAF9",
"' c #E8E8F8",
"] c #E9E9F8",
"[ c #EDECFA",
/* pixels */
"                         ",
"                         ",
"                         ",
"       --#,-$-           ",
"     -9%             Xu  ",
"   C7O      --        ^~ ",
"   BI  X# -@        ]`!  ",
"    PKVa       ( `[_(    ",
"     Ui       ]QGhxz     ",
"     cr            1t    ",
"      Y             -    ",
"          Hf    AHg      ",
"          4.  kN         ",
"        qpg              ",
"         YZLJLE          ",
"             uu          ",
"         A4     e        ",
"          gMEW HgN       ",
"            Mvbne        ",
"             28<         ",
"           4             ",
"            60           ",
"                         ",
"                         ",
"                         "
};
