/* XPM */
static char *f6c145ab0dd54611bdb1321533e829c4oVD8wp4ww7RjfmaW[] = {
/* columns rows colors chars-per-pixel */
"200 25 46 1 ",
"  c None",
". c black",
"X c gray2",
"o c #070707",
"O c #111111",
"+ c #131313",
"@ c gray8",
"# c #151515",
"$ c gray9",
"% c gray11",
"& c #1D1D1D",
"* c gray18",
"= c gray21",
"- c #373737",
"; c gray22",
": c #393939",
"> c gray24",
", c #3F3F3F",
"< c gray25",
"1 c gray26",
"2 c #434343",
"3 c #444444",
"4 c #464646",
"5 c #565656",
"6 c #626262",
"7 c gray40",
"8 c #686868",
"9 c DimGray",
"0 c #6A6A6A",
"q c gray44",
"w c #717171",
"e c #727272",
"r c gray45",
"t c #747474",
"y c gray46",
"u c gray53",
"i c #898989",
"p c gray54",
"a c #ACACAC",
"s c gray68",
"d c #AEAEAE",
"f c #AFAFAF",
"g c gray69",
"h c #B1B1B1",
"j c #B2B2B2",
"k c gray70",
/* pixels */
"                                                                                                                                                                                                        ",
"                                                                                                                                                                                                        ",
"                                                                                                                                                                                                        ",
"                                  ....................................................................................................................................                                  ",
"                               ..*,:=================================================================================================================================,*..                               ",
"                             .$,,7r0rrrrryrrrrrrrrrrrrrrrrrrrrrrrrrrrrrrrrrrrrrrrrrrrrryrrrrrrrrrrrrrrrrrrrrrrrrrrrrrrrrrrrrrrrrrrrrrrrrrrrrrrrrrrrrrrrrrrrrrrrrrryy0r6,,$.                             ",
"                             .$339yisssssssssssssssssssssssssssssssssssssssssssssssssssssssssssssssssssssssssssssssssssssssssssssssssssssssssssssssssssssssssssssssspy933$.                             ",
"                             .+227rikshhhhhhhhhhhhhhhhhhhhhhhhhhhhhhhhhhhhhhhhhhhhhhhhhhhhhhhhhhhhhhhhhhhhhhhhhhhhhhhhhhhhhhhhhhhhhhhhhhhhhhhhhhhhhhhhhhhhhhhhhhhhskir922+.                             ",
"                             .+329rihshhhshshshshhhshhhhhhhshhhhhshshshshshhhhhshshshhhshhhhhhhhhhhshhhhhhhshhhhhshshshshshhhhhshhhhhshhhshshshshhhshhhhhhhshhhhhshhir923+.                             ",
"                             .+329ruhhhshhhhhhhhshhhshshshhhshshhhhhhhhhhhshshhhhhhhshhhshshshshshhhshshshhhshshhhhhhhhhhhshshhhshshhhshhhhhhhhhshhhshshshhhshshhhhhir723+.                             ",
"                             .+327rihhshhshhhshhhshshhhshshshhhshshhhshhhhhhhshshshhhshshhhshhhshshshhhshshshhhshshhhshhhhhhhshshhhshhhhhshhhshhhshshhhshshshhhsshhhir733+.                             ",
"                             .+327rihhhhhhshhhshhhhhshhhhhhhshhhhhshhhshshshhhhhhhshhhhhshhhshhhhhhhshhhhhhhshhhhhshhhshshshhhhhshhhshshhhshhhshhhhhshhhhhhhshhhhhshur923+.                             ",
"                             .+329rihhhshhhshhhhhshhhshhhshhhshhhhhshhhhhshshhhshshshhhhhshhhshshshhhshhhshhhshhhhhshhhhhshshhhshhhhhshshhhshhhhhshhhshhhshhhshhshshir723+.                             ",
"                             .+337ruhshhshhhshshhhshhhshhhshhhshshhhshshhhhhshhhhhhhshshhhshhhhhhhshhhshhhshhhshshhhshshhhhhshhhshshhhhhshhhshshhhshhhshhhshhhshhhhhir733+.                             ",
"                             .+329rihhhhhshshhhshhhhhhhhhhhhhhhhhshshhhshshhhshshshhhhhshhhhhshhhhhhhhhhhhhhhhhhhshshhhshshhhshshhhshshhhshshhhshhhhhhhhhhhhhhhhhshhir923+.                             ",
"                             .+327rihhshhhhhshhhshshshshshshshshhhhhshhhhhshhhhhhhshshhhshshhhshshshshshshshshshhhhhshhhhhshhhhhshhhhhshhhhhshhhshshshshshshshshhhhhir723+.                             ",
"                             .+327rihhhshhhshshhhhshhhshhhshhhshhshshhhshshhhshshhhshhhshshhhshshhshhhshhhshhhshhshhhshhhshshhhshshhhshshhhshshhhhshhhshhhshhhshhshhir722+.                             ",
"                             .$339rikshhhhhhhhhhhhhhhhhhhhhhhhhhhhhhhhhhhhhhhhhhhhhhhhhhhhhhhhhhhhhhhhhhhhhhhhhhhhhhhhhhhhhhhhhhhhhhhhhhhhhhhhhhhhhhhhhhhhhhhhhhhhhhir933+.                             ",
"                             .$2,7rissssssssssssssssssssssssssssssssssssssssssssssssssssssssssssssssssssssssssssssssssssssssssssssssssssssssssssssssssssssssssssssasur722$.                             ",
"                               OX=25yyrrrrryrrrrrrrrrrrrrrrrrrrryrrrrrryrrrryrrrrrrrrrryrrrryrrrrrrrrrrrrrrrrrrrrrrrrrrryrrrrrryrrrryrrrrrryrrrrrrrrrrrrrrrrrrrryrry52:X+                               ",
"                                  .&================================================================================================================================%.                                  ",
"                                    ................................................................................................................................                                    ",
"                                                                                                                                                                                                        ",
"                                                                                                                                                                                                        ",
"                                                                                                                                                                                                        "
};
