/* XPM */
static char *_52aac7ca8d247f3ad3523894d1c1e52YA3wUIiQyeEkZ2Pk[] = {
/* columns rows colors chars-per-pixel */
"25 25 107 2 ",
"   c None",
".  c #00362F",
"X  c #69332A",
"o  c #6D3329",
"O  c #7A3228",
"+  c #753A29",
"@  c #004530",
"#  c #5F412B",
"$  c #744129",
"%  c #B3301D",
"&  c #8A2B25",
"*  c #9D2F25",
"=  c #9E3125",
"-  c #9E3923",
";  c #9D3E24",
":  c #A63F22",
">  c #AE3F21",
",  c #B13D20",
"<  c #CF1E17",
"1  c #CF3F1A",
"2  c #DD3D16",
"3  c #D23A1A",
"4  c #EB3D0B",
"5  c #944527",
"6  c #B14722",
"7  c #A25929",
"8  c #D0491E",
"9  c #CF511C",
"0  c #D7551A",
"q  c #DE5018",
"w  c #D7591D",
"e  c #F04A0F",
"r  c #FF510E",
"t  c #FD540F",
"y  c #FF5D0B",
"u  c #EF4C15",
"i  c #F54613",
"p  c #ED5914",
"a  c #E45819",
"s  c #FA5112",
"d  c #F85213",
"f  c #F15F16",
"g  c #F75F17",
"h  c #FF5F16",
"j  c #FA531A",
"k  c #F05818",
"l  c #F75F19",
"z  c #E96A1C",
"x  c #F16316",
"c  c #FF661B",
"v  c #FF641C",
"b  c #F6691A",
"n  c #F26E19",
"m  c #F36F1B",
"M  c #F46F1B",
"N  c #F2691C",
"B  c #F36E1E",
"V  c #FF6B19",
"C  c #F8681C",
"Z  c #FC6A1D",
"A  c #EC711E",
"S  c #EF7B1F",
"D  c #FF7015",
"F  c #FA7915",
"G  c #F4701E",
"H  c #F3741F",
"J  c #FF7219",
"K  c #FF741B",
"L  c #FF711C",
"P  c #F07C1D",
"I  c #F27D1D",
"U  c #FC7D1B",
"Y  c #FF791F",
"T  c #E74D21",
"R  c #E65721",
"E  c #D96C22",
"W  c #D37228",
"Q  c #F17C23",
"!  c #FA7920",
"~  c #FE7B21",
"^  c #F0891D",
"/  c #F78D1F",
"(  c #FF8B1D",
")  c #CD8524",
"_  c #FA8223",
"`  c #FF8420",
"'  c #F08A24",
"]  c #F78D24",
"[  c #F78E24",
"{  c #FF8823",
"}  c #FB8E23",
"|  c #FF8C22",
" . c #FD8B25",
".. c #FF8826",
"X. c #FF8E27",
"o. c #E59624",
"O. c #E69F28",
"+. c #FF9622",
"@. c #FF9623",
"#. c #F89624",
"$. c #FF9C23",
"%. c #FF9E27",
"&. c #FF9D28",
"*. c #EBA023",
"=. c #E5A924",
"-. c #F7A124",
";. c #F7A326",
/* pixels */
"                                                  ",
"                      l                           ",
"                    m #.M                         ",
"                    | =.`                         ",
"                    9 v 1                         ",
"                    . +                           ",
"                _ ^       E       B I             ",
"              b S +.4   q X.    h ..+.            ",
"                F [ *     a   < } o.d             ",
"                D { O         7 *.$.j             ",
"                  8     k     W ( Z               ",
"            I p       y &.0   5 3                 ",
"            ;.K &     m %.w                       ",
"            / C X               6 =               ",
"          H c :               - J Q %             ",
"                  , >       @ o z ;.x             ",
"                2 r u     # T ;    .G             ",
"              d | U i $     N A                   ",
"              g O.' R       ) [                   ",
"              V ! L e       Y ~                   ",
"                            t f                   ",
"                                                  ",
"                                                  ",
"                                                  ",
"                                                  "
};
