/* XPM */
static char *_40f9c0cfe3d4244aee359c9b089cc8a7uH5LGITn4aMm8Hb[] = {
/* columns rows colors chars-per-pixel */
"25 25 71 1 ",
"  c None",
". c #003B2F",
"X c #003E2E",
"o c #41432E",
"O c #45442D",
"+ c #4E422D",
"@ c #59412C",
"# c #60412B",
"$ c #61432B",
"% c #67412B",
"& c #64422B",
"* c #63442C",
"= c #6C4329",
"- c #6C422A",
"; c #6D442A",
": c #7D4027",
"> c #73422A",
", c #73452A",
"< c #75442B",
"1 c #7A4329",
"2 c #78432A",
"3 c #7E4328",
"4 c #784429",
"5 c #7A4629",
"6 c #79442A",
"7 c #7D4428",
"8 c #7C4429",
"9 c #7D4429",
"0 c #8B4426",
"q c #8C4426",
"w c #8D4627",
"e c #814528",
"r c #834729",
"t c #8D4829",
"y c #904525",
"u c #924526",
"i c #934626",
"p c #984725",
"a c #9A4725",
"s c #9D4625",
"d c #944826",
"f c #954B27",
"g c #A54722",
"h c #A14924",
"j c #A74B24",
"k c #AA4822",
"l c #AD4E24",
"z c #B34D24",
"x c #B04F27",
"c c #B24F26",
"v c #BA4D22",
"b c #B94F23",
"n c #B84F26",
"m c #B45129",
"M c #D7511C",
"N c #DA531D",
"B c #D8591E",
"V c #ED5417",
"C c #EC5D1F",
"Z c #F85B14",
"A c #FA5D1F",
"S c #C04D22",
"D c #D14F20",
"F c #CF5522",
"G c #CD5622",
"H c #D15120",
"J c #DC5720",
"K c #D85820",
"L c #DA5822",
"P c #FF5F20",
"I c #EC6125",
/* pixels */
"                         ",
"           $5            ",
"           GC            ",
"          otq5           ",
"                         ",
"        &                ",
"        If   pk          ",
"        BK   0&  ix      ",
"        :S       bZ9     ",
"         1       <Gj     ",
"                 ;;      ",
"     3z    ug            ",
"     NV$   uPe           ",
"     HD     p9           ",
"      -          O.      ",
"                 9Le     ",
"       X5        -Pp     ",
"       lz+     d  >      ",
"       vM1     *         ",
"       @n<     Jh        ",
"               mw        ",
"                         ",
"                         ",
"                         ",
"                         "
};
