/* XPM */
static char *de1f44529fa143c8974ed09ec638241foiIltmWOJZsv7EVb[] = {
/* columns rows colors chars-per-pixel */
"25 25 168 2 ",
"   c None",
".  c #010000",
"X  c #0E0000",
"o  c #020C0D",
"O  c #1C0000",
"+  c #120B02",
"@  c #190B00",
"#  c #160F08",
"$  c #1D1611",
"%  c #1F1A16",
"&  c #101719",
"*  c #220000",
"=  c #2B0C00",
"-  c #221505",
";  c #2B1500",
":  c #2D1A01",
">  c #3A1600",
",  c #351D01",
"<  c #361F08",
"1  c #231C15",
"2  c #231E19",
"3  c #3C2100",
"4  c #30200C",
"5  c #3A2409",
"6  c #2D2212",
"7  c #27221A",
"8  c #3D2710",
"9  c #3D2913",
"0  c #3D2C19",
"q  c #262321",
"w  c #2E2822",
"e  c #2D2D2D",
"r  c #322C23",
"t  c #352F2B",
"y  c #35332B",
"u  c #3A362D",
"i  c #2F3233",
"p  c #333434",
"a  c #3B3734",
"s  c #3C3A32",
"d  c #3E3D3C",
"f  c #422501",
"g  c #4E2700",
"h  c #482B00",
"j  c #442A0D",
"k  c #5E3400",
"l  c #452C12",
"z  c #4A2E13",
"x  c #4E3216",
"c  c #45331C",
"v  c #4E351A",
"b  c #4E381F",
"n  c #513416",
"m  c #573911",
"M  c #5B3C12",
"N  c #52361A",
"B  c #54391C",
"V  c #5B3D1C",
"C  c #603400",
"Z  c #613E0D",
"A  c #4D3B23",
"S  c #42382D",
"D  c #493929",
"F  c #523A21",
"G  c #593F22",
"H  c #433F35",
"J  c #413F3A",
"K  c #5F401A",
"L  c #694200",
"P  c #63410F",
"I  c #6A450E",
"U  c #664413",
"Y  c #6E4B11",
"T  c #64441E",
"R  c #69461D",
"E  c #714F1A",
"W  c #71501B",
"Q  c #5E4323",
"!  c #5D4629",
"~  c #434036",
"^  c #45443B",
"/  c #4A463E",
"(  c #4C493E",
")  c #664723",
"_  c #684724",
"`  c #664926",
"'  c #6B4A23",
"]  c #644B2A",
"[  c #6D4D2A",
"{  c #704E2B",
"}  c #6D512B",
"|  c #72512C",
" . c #78562F",
".. c #6D5332",
"X. c #6B523B",
"o. c #735331",
"O. c #755934",
"+. c #7A5B33",
"@. c #3E4040",
"#. c #4A4743",
"$. c #4C4A41",
"%. c #4A4848",
"&. c #514D45",
"*. c #514F4C",
"=. c #535146",
"-. c #555348",
";. c #59574C",
":. c #5B594E",
">. c #555351",
",. c #5E5C51",
"<. c #5D5B5A",
"1. c #61564D",
"2. c #64584C",
"3. c #685A4D",
"4. c #635D53",
"5. c #7A634E",
"6. c #646255",
"7. c #6D6155",
"8. c #676658",
"9. c #69665A",
"0. c #6D6B5D",
"q. c #796554",
"w. c #7E6B5E",
"e. c #6C6A65",
"r. c #716F60",
"t. c #747263",
"y. c #797667",
"u. c #74706C",
"i. c #797768",
"p. c #7B7969",
"a. c #797674",
"s. c #7D7A77",
"d. c #7F7D7B",
"f. c #826C55",
"g. c #867466",
"h. c #80776F",
"j. c #817E7B",
"k. c #82816F",
"l. c #858371",
"z. c #898775",
"x. c #8B8976",
"c. c #84817E",
"v. c #8A837D",
"b. c #8D8C79",
"n. c #918F7C",
"m. c #94927E",
"M. c #878582",
"N. c #8A8885",
"B. c #948F8B",
"V. c #969480",
"C. c #999782",
"Z. c #9B9A85",
"A. c #98928E",
"S. c #9F9E88",
"D. c #9A9693",
"F. c #9D9896",
"G. c #A19F89",
"H. c #A2A08B",
"J. c #A2A189",
"K. c #A3A28C",
"L. c #A5A38D",
"P. c #A5A48D",
"I. c #A8A68F",
"U. c #A9A790",
"Y. c #A9A790",
"T. c #AAA891",
"R. c #B0AD96",
"E. c #B6B39B",
/* pixels */
"                      T.T.C.                      ",
"                C.t.m.I.P.x.K.n.E.                ",
"              S.R.Z.t.r.0.0.$.b.T.S.b.            ",
"          Z.C.n.9.b.t.=.;.=./ m.p.9.p.S.          ",
"        l.Y.y.;.0./ ~ . . X $ -.8.t.m.Z.Z.        ",
"      ;.Z.0.r.;.$ @ ; 0 c A c , O -.p.9.x.l.      ",
"      L.6.6.:.# 4 A Q Q ! } [ | ! = ~ 6.p.J.      ",
"    C.V.J.r.. 6 A ] | | ]  .{ +.O.Q : ^ V.J.C.    ",
"    J.y.t.$.- D ] O.O.| ] | | O.+.o.! 7 :.0.Z.    ",
"    z.6.=.+ 3 g k W Y R } ) I W L k U ; J ,.J.p.  ",
"    S.m.$.1 3.g.w.5.f.X.X.X.5.f.q.g.q.S q C.P.8.  ",
"    x.y.#.e c.N.c.d.u.&.d &.9.s.j.M.d.%.s n.r.8.  ",
"    y.-.s . a . . t . . 7 % . w @ . 2 . y x.8.$.  ",
"    Z.k.y j m ) V m Q B b Q V V V Q B , 7 z.n.0.  ",
"    G.l.H N o.{ [ { | _ ] | [ } { [ [ j u Z.m.p.  ",
"    t.,./ h [ _ R { } K ` ) _ { ' T ] 3 H V.6.;.  ",
"    p.r.s f Z P Z U ' V ) V ) R Z Z M 3 w p.t.:.  ",
"    Y.x.#.a.D.F.A.v.7.1./ 4.2.h.B.D.B.e.J V.S.p.  ",
"    b.9.^ e e.@.d <.e & t p o >.*.p <.d u V.y.,.  ",
"    t.;.s . O * * O ; : @ ; : * * * O . y l.4.$.  ",
"    m.k.u 5 B B N N N x 8 N N N v x b 5 w l.x.8.  ",
"    y.8.H , B N x N N n l N n B N x B , u l.0.-.  ",
"    -.s y < N N n N z B 9 B x x N x B , u t.( u   ",
"    / a r < N N z l l 3 O > f l z x v 3 w =.u e   ",
"                      -.&.6.                      "
};
