/* XPM */
static char *_762c541d535401e97f9654a2b4aca1eqQxQaQWoycJUAZCo[] = {
/* columns rows colors chars-per-pixel */
"25 25 98 2 ",
"   c None",
".  c black",
"X  c #010000",
"o  c #010100",
"O  c #020100",
"+  c #030201",
"@  c #0E0A04",
"#  c #100C05",
"$  c #110C05",
"%  c #120D05",
"&  c #161108",
"*  c #171108",
"=  c #2A1F0D",
"-  c #312713",
";  c #352711",
":  c #362812",
">  c #322814",
",  c #322914",
"<  c #382913",
"1  c #382A12",
"2  c #392A12",
"3  c #392A13",
"4  c #3C2C13",
"5  c #3A2F17",
"6  c #3B2F17",
"7  c #3D2D14",
"8  c #3E2E14",
"9  c #3F2E14",
"0  c #3F2F14",
"q  c #3E2E15",
"w  c #3F2E15",
"e  c #3F2F15",
"r  c #402F14",
"t  c #402F15",
"y  c #413015",
"u  c #413115",
"i  c #423116",
"p  c #433216",
"a  c #453518",
"s  c #493719",
"d  c #4B391A",
"f  c #4C3B1B",
"g  c #4D3C1B",
"h  c #4D3C1C",
"j  c #4F3D1C",
"k  c #503D1B",
"l  c #523E1B",
"z  c #503E1D",
"x  c #523F1C",
"c  c #533F1D",
"v  c #503E1E",
"b  c #513F1E",
"n  c #52401D",
"m  c #53411E",
"M  c #564622",
"N  c #594924",
"B  c #674F25",
"V  c #735A29",
"C  c #715A2A",
"Z  c #735A2A",
"A  c #765A29",
"S  c #755A2A",
"D  c #745B2A",
"F  c #755D2B",
"G  c #765D2C",
"H  c #765E2C",
"J  c #775F2D",
"K  c #77612F",
"L  c #7B6632",
"P  c #80622D",
"I  c #836530",
"U  c #846630",
"Y  c #856630",
"T  c #866831",
"R  c #886A33",
"E  c #927237",
"W  c #927338",
"Q  c #947538",
"!  c #947539",
"~  c #957639",
"^  c #95763A",
"/  c #98783B",
"(  c #9A7C3C",
")  c #9A7E3E",
"_  c #A07F3E",
"`  c #9F8641",
"'  c #9F8642",
"]  c #A18340",
"[  c #AD8B45",
"{  c #B3984B",
"}  c #BA9F4F",
"|  c #BCA050",
" . c #BCA150",
".. c #BDA150",
"X. c #C3A753",
"o. c #C4A854",
"O. c #C6AB55",
"+. c #C9AD56",
/* pixels */
"                                                  ",
"                                                  ",
"                                                  ",
"                +.o...} ..| ..X.O.                ",
"            ..` K M 5 - , , 5 N L ` {             ",
"        [ ( v & X X X X X X X X X & M ( ]         ",
"        _ c + X X X X X X X X X X X X d E         ",
"        / u X X X X X X X X X X X X + 4 R u       ",
"        ~ r X X X X X X X X X X X X X 2 T 9       ",
"        ~ r X X X X X X X X X X X X X 2 Y 2       ",
"        ~ r X X X X X X X X X X X X X 2 Y 9       ",
"        ~ r X X X X X X X X X X X X + 4 Y r       ",
"        ~ u X X X X X X X X X X X X X 3 Y 9       ",
"        ~ a X X X X X X X X X X X X X 3 Y 9       ",
"        ~ a X X X X X X X X X X X X X 3 Y 9       ",
"        ~ a X X X X X X X X X X X X X 3 Y 9       ",
"        ~ a X X X X X X X X X X X X X 3 Y 9       ",
"        ~ a X X X X X X X X X X X X X 3 Y 9       ",
"        ~ a X X X X X X X X X X X X X 3 Y 9       ",
"        ~ r X X X X X X X X X X X X X 2 Y 2       ",
"        W 9 X X X X X X X X X X X X X 2 Y :       ",
"        W 9 # # $ $ $ $ $ $ $ $ $ @ $ 0 P ;       ",
"        R B Z G D D D Z Z Z G G G G K D D =       ",
"          a h m v l l l g f m v l v h s 4         ",
"                                                  "
};
