/* XPM */
static char *_a55d96e24af40ece460a98ff096e78dpHQ4FgBX0YwXBkjJ[] = {
/* columns rows colors chars-per-pixel */
"25 25 83 1 ",
"  c None",
". c #444444",
"X c #494949",
"o c gray29",
"O c #4C4C4C",
"+ c #515151",
"@ c gray49",
"# c #868686",
"$ c gray54",
"% c #8B8B8B",
"& c gray58",
"* c #959595",
"= c gray59",
"- c #979797",
"; c #9B9B9B",
": c gray61",
"> c #9F9F9F",
", c gray63",
"< c #A2A2A2",
"1 c gray64",
"2 c #A5A5A5",
"3 c gray65",
"4 c #A7A7A7",
"5 c gray68",
"6 c #AEAEAE",
"7 c #AFAFAF",
"8 c gray69",
"9 c #B1B1B1",
"0 c #B2B2B2",
"q c gray70",
"w c gray72",
"e c #B9B9B9",
"r c #BCBCBC",
"t c gray74",
"y c gray75",
"u c gray76",
"i c #C3C3C3",
"p c #C6C6C6",
"a c gray79",
"s c #CACACA",
"d c #CBCBCB",
"f c gray80",
"g c #CDCDCD",
"h c #CECECE",
"j c gray81",
"k c #D0D0D0",
"l c gray82",
"z c LightGray",
"x c gray83",
"c c #D5D5D5",
"v c gray84",
"b c #D7D7D7",
"n c #D8D8D8",
"m c #DADADA",
"M c gainsboro",
"N c #DDDDDD",
"B c #DFDFDF",
"V c gray88",
"C c #E2E2E2",
"Z c gray89",
"A c #E4E4E4",
"S c gray90",
"D c #E6E6E6",
"F c #E7E7E7",
"G c gray91",
"H c #E9E9E9",
"J c #EAEAEA",
"K c gray92",
"L c #ECECEC",
"P c gray93",
"I c #EEEEEE",
"U c #EFEFEF",
"Y c gray94",
"T c gray95",
"R c #F4F4F4",
"E c #F6F6F6",
"W c #F9F9F9",
"Q c gray98",
"! c #FBFBFB",
"~ c gray99",
"^ c #FDFDFD",
"/ c #FEFEFE",
"( c white",
/* pixels */
"                         ",
"          ehs<           ",
"         ((((Dp          ",
"        x((((Qn;         ",
"        seE&E(Be         ",
"        6y(.z(Di         ",
"      hxEHH(hzih:        ",
"     s(QPPZZH(nzq        ",
"     ((hn(T6Q((D2        ",
"     hnyDQ(e2((P2        ",
"      ;2DP(D;h(Qe        ",
"       &PPQD2<EHy        ",
"       &TP(Di2Hzs        ",
"       ;TPTPsiZnx<       ",
"       <HDD(spHHhq       ",
"        yeqDhssPxx&      ",
"        $e&2xnhxnxi      ",
"          $#<<q66q6@     ",
"                         ",
"                         ",
"                         ",
"                         ",
"        XOO++++++OXX     ",
"           XXXXXXXX      ",
"                         "
};
