/* XPM */
static char *ba112a7766654582bd6dac8ec4b7e77fefbfoJMJHMYp7p4o[] = {
/* columns rows colors chars-per-pixel */
"25 25 154 2 ",
"   c #362127",
".  c #3C282B",
"X  c #3E2D31",
"o  c #462D2E",
"O  c #41302E",
"+  c #422E31",
"@  c #443234",
"#  c #493535",
"$  c #463438",
"%  c #4A363A",
"&  c #4C3A3C",
"*  c #533D3C",
"=  c #593E3F",
"-  c #56423E",
";  c #563E41",
":  c #564243",
">  c #5B4444",
",  c #5D4A46",
"<  c #57474A",
"1  c #5A4B4D",
"2  c #604644",
"3  c #65474A",
"4  c #644B4B",
"5  c #6A4D4D",
"6  c #6B514D",
"7  c #6D4F51",
"8  c #605052",
"9  c #6D5353",
"0  c #6E5B5C",
"q  c #745556",
"w  c #7A5657",
"e  c #745A56",
"r  c #785855",
"t  c #76575A",
"y  c #79565A",
"u  c #765B5A",
"i  c #7C5C5D",
"p  c #7C615C",
"a  c #7B6859",
"s  c #776663",
"d  c #7E6261",
"f  c #7E7272",
"g  c #825F5D",
"h  c #84645F",
"j  c #8A705F",
"k  c #815F60",
"l  c #836462",
"z  c #856A64",
"x  c #8D6967",
"c  c #846C6A",
"v  c #8E6C6A",
"b  c #926E69",
"n  c #8B7565",
"m  c #8E7A65",
"M  c #8F746C",
"N  c #8E7B6A",
"B  c #94736E",
"V  c #9A756F",
"C  c #937B6E",
"Z  c #846F70",
"A  c #8A7372",
"S  c #8D7E75",
"D  c #877C7B",
"F  c #8A7D7A",
"G  c #967471",
"H  c #997672",
"J  c #977972",
"K  c #9C7974",
"L  c #978071",
"P  c #9A8775",
"I  c #93817E",
"U  c #9C837C",
"Y  c #A38577",
"T  c #A38779",
"R  c #A48A7A",
"E  c #A98E7F",
"W  c #A59076",
"Q  c #A5907B",
"!  c #AA937B",
"~  c #887F80",
"^  c #8C8082",
"/  c #938583",
"(  c #998586",
")  c #92878B",
"_  c #988B8B",
"`  c #9D948F",
"'  c #9C9193",
"]  c #9F9A97",
"[  c #A79281",
"{  c #AA9681",
"}  c #AD9982",
"|  c #B39F84",
" . c #A39A96",
".. c #A69E9D",
"X. c #B3A285",
"o. c #B5A489",
"O. c #B9A589",
"+. c #BBAA8C",
"@. c #ACA39E",
"#. c #BDB091",
"$. c #ACA4A4",
"%. c #B1A7A6",
"&. c #B2ABAC",
"*. c #BCB3B5",
"=. c #B9B8B7",
"-. c #BEB6B8",
";. c #C4B293",
":. c #C2BDBD",
">. c #C6C3C3",
",. c #C8C5C4",
"<. c #CECCCB",
"1. c #D2CDCC",
"2. c #DFDCDD",
"3. c #E1DFDF",
"4. c #DFDEE0",
"5. c #E0DFE1",
"6. c #E3E2E2",
"7. c #E9E6E6",
"8. c #EEEDED",
"9. c #F0EFEF",
"0. c #F0F0EF",
"q. c #EEEEF1",
"w. c #F0EFF0",
"e. c #EFF0F1",
"r. c gray95",
"t. c #F3F3F3",
"y. c #F3F3F3",
"u. c None",
"i. c None",
"p. c None",
"a. c None",
"s. c #F3F4F6",
"d. c gray96",
"f. c None",
"g. c #F5F6F5",
"h. c #F6F6F5",
"j. c #F5F7F6",
"k. c #F6F6F6",
"l. c #F2F2F2",
"z. c #F7F7F8",
"x. c #F6F8F9",
"c. c #F8F9FA",
"v. c #FAFBFB",
"b. c #FBFBFB",
"n. c #F9FCF9",
"m. c #FBFBFC",
"M. c #FBFCFC",
"N. c #FAFCFD",
"B. c #FBFCFD",
"V. c #FBFDFD",
"C. c #FCFDFC",
"Z. c white",
"A. c #FCFEFE",
"S. c #FCFDFC",
/* pixels */
"u.u.u.u.u.u.u.u.u.8.v.7.v.f.8.u.u.u.u.u.u.u.i.u.u.",
"u.u.u.u.u.u.u.u.u.x.&.c ] 4.v.u.u.u.u.u.u.u.u.u.u.",
"u.u.u.u.u.u.u.u.f...C X.Q S $.8.u.u.u.u.p.u.f.u.u.",
"u.u.u.u.p.u.q.Z.%.m #.O.+.+.j -.Z.u.u.u.u.u.u.u.u.",
"u.u.u.i.a.u.u.p.I b [ O.X.z * D Z.8.u.u.u.p.u.p.u.",
"u.u.u.u.u.u.u.e.A b B R N X X 8 8.u.u.u.u.u.u.u.u.",
"u.u.p.u.u.u.p.7.c b G K p @ & @ 1.v.u.u.u.a.u.p.u.",
"u.u.u.p.u.u.Z.>.i H G K i @ & .  .v.9.p.u.u.u.u.u.",
"u.u.u.w.f.w.$.s h J C b d & & . ) v.0.u.p.e.p.u.u.",
"u.u.u.f.6.F m O.X.X.{ J i & @ + s ,.j.p.e.p.u.u.u.",
"u.u.w.a.A W #.o.O.o.O.! d ; 6 J ! m ' 8.p.u.u.p.u.",
"u.w.m.*.g [ o.O.o.o.o.X.t q X.+.o.;.N -.v.0.u.u.u.",
"u.u.Z. .w H Y O.o.o.+.{ 4 l [ | +.[ : f v.u.u.u.u.",
"u.u.f.I b H G } +.O.! u 4 b G T ! : X : 7.p.u.u.u.",
"u.i.8.c x H B U U B , # i x G K p X $ X ,.v.0.u.u.",
"8.f.5.l B V V M u i 3 o i K V G d $ & . I j.u.u.u.",
"u.f.5.d G G H l q i 7 + l K J E B # @ * a @.p.e.u.",
"u.f.5.z H B B g y i q $ i G R +.O.n @ u ;.[ 6.j.e.",
"u.f.6.z G G G w y y i @ 7 H B | +.C @ 9 C e <.x.u.",
"u.f.3.l t l G y u t q 6 p u l T B % $ * q o =.Z.8.",
"w.u.w.( * # i i t 9 t ! +.- 9 K : X e h - D 8.u.e.",
"w.u.8.( u @ , i t 5 e R P @ , B : X 4 r $.m.a.u.u.",
"0.Z.:.5 G & + 5 5 ; w K , @ & 9 o & F $.6.f.w.u.u.",
"u.u.7.Z i < ~ ( e ' A l &   1 *.@.7.u.Z.u.u.p.u.u.",
"u.u.p.8.2.6.v.p.5.Z.1._ ' ) &.Z.n.p.u.8.u.u.u.u.p."
};
