/* XPM */
static char *_6aac2ed578e4e5c8e67b5e7400cbb391zB0DY6o9vLC8iyk[] = {
/* columns rows colors chars-per-pixel */
"25 25 217 2 ",
"   c #40392F",
".  c #423B31",
"X  c #463F37",
"o  c #484137",
"O  c #494238",
"+  c #4A4339",
"@  c #4B443A",
"#  c #4B443C",
"$  c #4D463C",
"%  c #4E473D",
"&  c #4F4840",
"*  c #524B43",
"=  c #524E43",
"-  c #554E44",
";  c #564F45",
":  c #564F47",
">  c #545045",
",  c #585147",
"<  c #5A5247",
"1  c #575348",
"2  c #5B5348",
"3  c #5A5349",
"4  c #595549",
"5  c #5A5448",
"6  c #5B544A",
"7  c #5D554A",
"8  c #5C554B",
"9  c #5B544C",
"0  c #5B574C",
"q  c #5D564C",
"w  c #5E574D",
"e  c #5D564E",
"r  c #5E5A4F",
"t  c #5F5B50",
"y  c #60584D",
"u  c #60594F",
"i  c #615B4F",
"p  c #615A50",
"a  c #625B51",
"s  c #615A52",
"d  c #605C51",
"f  c #625C50",
"g  c #635C52",
"h  c #635F53",
"j  c #645C51",
"k  c #645D53",
"l  c #655F53",
"z  c #635F54",
"x  c #655E54",
"c  c #665F55",
"v  c #665F57",
"b  c #656156",
"n  c #676056",
"m  c #666256",
"M  c #686157",
"N  c #686256",
"B  c #686159",
"V  c #696258",
"C  c #6A6359",
"Z  c #6A635B",
"A  c #686458",
"S  c #696559",
"D  c #69655A",
"F  c #6B645A",
"G  c #6B675B",
"H  c #6C6459",
"J  c #6C655B",
"K  c #6C665A",
"L  c #6B645C",
"P  c #6C655D",
"I  c #6D665C",
"U  c #6F675C",
"Y  c #6E675D",
"T  c #6C685D",
"R  c #6D695D",
"E  c #6E685C",
"W  c #6F685E",
"Q  c #6E6A5F",
"!  c #70695F",
"~  c #706A5E",
"^  c #716B5F",
"/  c #6F6860",
"(  c #6F6B60",
")  c #716A60",
"_  c #726B61",
"`  c #706C60",
"'  c #716D61",
"]  c #736D61",
"[  c #716D62",
"{  c #736C62",
"}  c #726E62",
"|  c #726E63",
" . c #736F63",
".. c #746C61",
"X. c #756D62",
"o. c #746D63",
"O. c #736F64",
"+. c #756E64",
"@. c #776F64",
"#. c #766F65",
"$. c #747064",
"%. c #757165",
"&. c #757166",
"*. c #777066",
"=. c #767266",
"-. c #767267",
";. c #777367",
":. c #797166",
">. c #787167",
",. c #787266",
"<. c #797367",
"1. c #777068",
"2. c #797268",
"3. c #7A7369",
"4. c #787468",
"5. c #787469",
"6. c #797569",
"7. c #7A7468",
"8. c #7B7569",
"9. c #79756A",
"0. c #7B746A",
"q. c #7A766A",
"w. c #7B776B",
"e. c #7C7469",
"r. c #7C756B",
"t. c #7C766A",
"y. c #7D776B",
"u. c #7E766B",
"i. c #7B776C",
"p. c #7D766C",
"a. c #7F776C",
"s. c #7E776D",
"d. c #7C786C",
"f. c #7D796D",
"g. c #7D796E",
"h. c #7F786E",
"j. c #7E7A6E",
"k. c #7F7B6F",
"l. c #7F7B70",
"z. c #80786D",
"x. c #81796E",
"c. c #80796F",
"v. c #807A6E",
"b. c #827A6F",
"n. c #817A70",
"m. c #827B71",
"M. c #807C70",
"N. c #837D71",
"B. c #817D72",
"V. c #837C72",
"C. c #827E72",
"Z. c #837F73",
"A. c #847C71",
"S. c #857D72",
"D. c #847D73",
"F. c #847E72",
"G. c #837F74",
"H. c #857E74",
"J. c #877F74",
"K. c #867F75",
"L. c #858175",
"P. c #878175",
"I. c #858176",
"U. c #878076",
"Y. c #868276",
"T. c #878377",
"R. c #888075",
"E. c #888177",
"W. c #888276",
"Q. c #898278",
"!. c #8A8379",
"~. c #888478",
"^. c #8A8478",
"/. c #8B847A",
"(. c #8A867A",
"). c #8A867B",
"_. c #8D857A",
"`. c #8C857B",
"'. c #8D877B",
"]. c #8E867B",
"[. c #8B877C",
"{. c #8D867C",
"}. c #8E877D",
"|. c #8C887C",
" X c #8E887C",
".X c #8F887E",
"XX c #8E8A7E",
"oX c #8E8A7F",
"OX c #8F8B7F",
"+X c #90897F",
"@X c #918A80",
"#X c #928B81",
"$X c #918D82",
"%X c #938C82",
"&X c #948D83",
"*X c #958E84",
"=X c #968F85",
"-X c #949084",
";X c #979086",
":X c #969286",
">X c #969287",
",X c #979387",
"<X c #989187",
"1X c #999288",
"2X c #9A9389",
"3X c #99958A",
"4X c #9B948A",
"5X c #9A968B",
"6X c #9D968C",
"7X c #9E978D",
"8X c #9D998D",
"9X c #A0998F",
"0X c #A19D91",
"qX c #A49D93",
"wX c #A6A297",
"eX c #A9A298",
"rX c #ADA99E",
/* pixels */
"F m.Y >.Y v H.+.>.>.{.1X%Xc.+.`.OXOXY.d.d.Y.(.L.> ",
"+.@Xm.m...> ..M Y 3.U.=XH.>.H.%XY.L.j.d.;.d.j.j.b ",
"h.=XH.r.3.3 3.r...h.m.E.+.M m.V.d.;.%.;.$.G Q 9.b ",
"0.&X.XE.@Xp _ W V _ W 1.h.*.0.Q.;.' Q $.' S G ;.r ",
"V r.+.F 3.u V.@X@X%X=X{.7X/.M `.d.d.%.;.&.$.&.9.0 ",
"Y H.Q.p.0.p r.Q.D.E.=X.X9X`.u @Xj.j.;.$.&.9.9.( 0 ",
"p _ W n u w 3.V.+X.X1X=X<XH.x h.;.;.$.$.;.;.&.R r ",
"3.H.H.E.m.D.`.h.0._ 3.h.h.3.F M $.Q Q $.d.;.&.$.> ",
"( p.3.*.*.0.m.h.r.r._ m./.H.4X3.d.OXY.Y.8X0XwXrX$.",
"_ h.3.*.0.0.p.0.0.V V W p.D.E.k %.L.6.L.:X:X:X3X^ ",
"V 3.+.+.0.0.0.*.+.u *.3.r././.F S d.;.d.|.OXOX(.i ",
"3 x g x Y _ _ Y J , { >.>.E.`.x S L.Y.L.|.-X3X-Xb ",
"x _ Y _ 0.h.m.p.p.M ! 3.D.&X1Xu 4 A b G $.&.9.&.> ",
"u Y J V { ..3.{ >.J _ >.c.{.=Xg ;.A b d.L.;.9.g.F ",
"p _ _ _ +.*.3..._ { @X/.{.1X%X_ Y.;.&.OX-XL.Y.[.d.",
"g +.+.+.3.1.3.+.F J <X{.%X7X3.3 W $.<.Y.v.;.V.l.h.",
"M 3.0._ >.+._ ! V p c.V w J p % 3 u < D.b.r.z.].r.",
"  8 x p V Y Y Y p.p.w w /.%X=Xm.! ..y z.z.z.z._.,.",
"% *.E.m.m.E.H.Q.m.@X+.3.1XH.{.m.U ^ y @.u.b.R.]...",
"@ +.`.m.p.c.p.r.K.p.3.+.@X@X1XH.i J < z.b.J.R.].>.",
"@ >.{.H.D.H.m.p.{.m.+.V /.{.%X3.N K i ^.R.v.t.^.*.",
"@ +.{.Q.Q.Q.Q.Q.{.9Xc.g V.V 3.Z K ~ n '.R.u.<.^.{ ",
"X ..{.+X{.+X@X1X4X@XW > V.3.@Xm.n K k E.D.h.t.'._ ",
". Y {.@X@X%X1XeXqXY p.x m.H.D.Y u ^ n E.D.D.D.`.*.",
"X # & : x e B B p 9 P * / 1.Z Z 8 u ; ..V M J J n "
};
