/* XPM */
static char *_5537_fc811508d6fc060c0a11ab69f0b8fa4cd12b29b13610afe67eb5267d7e84a91a[] = {
/* columns rows colors chars-per-pixel */
"25 25 197 2 ",
"   c #000000",
".  c #00010C",
"X  c #030908",
"o  c #150502",
"O  c #000214",
"+  c #000C18",
"@  c #001015",
"#  c #041518",
"$  c #171914",
"%  c #2A0000",
"&  c #260000",
"*  c #380400",
"=  c #351C06",
"-  c #271C1A",
";  c #351B1A",
":  c #39251A",
">  c #3C280B",
",  c #021621",
"<  c #001B25",
"1  c #0D1C21",
"2  c #2D1D20",
"3  c #032029",
"4  c #032731",
"5  c #0B303B",
"6  c #1C2628",
"7  c #352B26",
"8  c #3A3428",
"9  c #373432",
"0  c #500900",
"q  c #43180F",
"w  c #40160C",
"e  c #561A0B",
"r  c #481008",
"t  c #780000",
"y  c #791611",
"u  c #4F231A",
"i  c #57241E",
"p  c #792609",
"a  c #5C2321",
"s  c #453421",
"d  c #483625",
"f  c #433B37",
"g  c #513331",
"h  c #412A27",
"j  c #70382E",
"k  c #7A3835",
"l  c #73573E",
"z  c #6A553F",
"x  c #043746",
"c  c #043C52",
"v  c #274351",
"b  c #014C64",
"n  c #01516A",
"m  c #376471",
"M  c #474340",
"N  c #4A4F50",
"B  c #525353",
"V  c #695843",
"C  c #765A41",
"Z  c #7C664B",
"A  c #44636D",
"S  c #466B75",
"D  c #860000",
"F  c #9C0100",
"G  c #831F14",
"H  c #A41F1C",
"J  c #852300",
"K  c #9B300F",
"L  c #A0320E",
"P  c #B63000",
"I  c #BA301A",
"U  c #8F3B32",
"Y  c #963C2D",
"T  c #BF3D32",
"R  c #A53F3A",
"E  c #CB0000",
"W  c #FE0000",
"Q  c #C7331E",
"!  c #F9203B",
"~  c #FF3536",
"^  c #9B422F",
"/  c #835D2E",
"(  c #954332",
")  c #AD422F",
"_  c #AC4D39",
"`  c #B6523D",
"'  c #BB523C",
"]  c #B34739",
"[  c #CA462A",
"{  c #FF4335",
"}  c #934440",
"|  c #9E5041",
" . c #AA5443",
".. c #BE5744",
"X. c #B75546",
"o. c #886746",
"O. c #816E54",
"+. c #897257",
"@. c #947251",
"#. c #997856",
"$. c #92724B",
"%. c #A57B52",
"&. c #937E60",
"*. c #B17A78",
"=. c #C15545",
"-. c #C05A45",
";. c #FA4E4C",
":. c #E0534F",
">. c #F4564E",
",. c #D4634C",
"<. c #CD715B",
"1. c #CD6954",
"2. c #E6695C",
"3. c #DF7861",
"4. c #FF6C63",
"5. c #F36E6A",
"6. c #FD716B",
"7. c #FA7671",
"8. c #EE7666",
"9. c #9E805F",
"0. c #AB835C",
"q. c #BB905F",
"w. c #AD906D",
"e. c #B3906B",
"r. c #B59772",
"t. c #A48262",
"y. c #C58A65",
"u. c #D28967",
"i. c #CC9B6B",
"p. c #C09E76",
"a. c #DA9B74",
"s. c #E98C6F",
"d. c #C2A078",
"f. c #D2A171",
"g. c #D5A87A",
"h. c #E1AE7B",
"j. c #E6B27E",
"k. c #00718E",
"l. c #467793",
"z. c #008DB7",
"x. c #128BB6",
"c. c #0094BC",
"v. c #0D93B6",
"b. c #1B94BB",
"n. c #249CB6",
"m. c #4D86A0",
"M. c #5E90B8",
"N. c #009BCC",
"B. c #1C98C3",
"V. c #00A0CF",
"C. c #06A9DB",
"Z. c #25B2D5",
"A. c #02B1E6",
"S. c #00BCEF",
"D. c #00B3E9",
"F. c #0DB9F0",
"G. c #61B2D9",
"H. c #00CDFE",
"J. c #0DCDFD",
"K. c #00C8F7",
"L. c #04D0FE",
"P. c #00D9FF",
"I. c #11D2FF",
"U. c #17CDF8",
"Y. c #2FDFFF",
"T. c #35DFFF",
"R. c #34E2FF",
"E. c #D9928C",
"W. c #EA9F9C",
"Q. c #C0AE84",
"!. c #D5AE83",
"~. c #D9B488",
"^. c #C0A19F",
"/. c #E3AC80",
"(. c #EAB683",
"). c #E9B989",
"_. c #F6B789",
"`. c #D8B7B4",
"'. c #CEB0AE",
"]. c #FFB5B1",
"[. c #F2AAA8",
"{. c #F6C28E",
"}. c #EFC594",
"|. c #F4CD9A",
" X c #FECD99",
".X c #F6C793",
"XX c #FFD09C",
"oX c #CBCEA1",
"OX c #FFD6A1",
"+X c #FFDAA9",
"@X c #FFE7AF",
"#X c #FFF7BF",
"$X c #FDC1C1",
"%X c #E4DEDC",
"&X c #F0E3E3",
"*X c #E4F1F1",
"=X c None",
/* pixels */
"=X=X=X=X=X=X=X=X=X=X=X=X=X=X=X=X=X=X=X=X=X=X=X=X=X",
"=X=X=X=X=X=X=X=X=X=X=X=X=X=X=X=X=X=X=X=X=X=X=X=X=X",
"=X=X=X=Xa g B f ; h =Xq w w q a u a a =X=X=X=X=X=X",
"=X=X  } 4.W.*X^.D 0   ^ ` _ X.<.1.W E   % =X=X=X=X",
"=X=X=Xk _ *.].`.'.*.p _ ' ' -.>.5.$XW.J j   =X=X=X",
"=X=X=X*   U { [.&XE.[ ..` ` =.;.6.%X`.P ( y y =X=X",
"=X=X  e L =.6.6.8.;.! T ) ] X.<.1.,.' p I ~ H   =X",
"=X=X  e L =.8.2.:._.+X_.h.a.u.=.-.s.3.1...Q G   =X",
"=X=X=Xe p (  .y.a.~.oX|.XX{.(.Y _ a.u.X.| p e   =X",
"=X=X=X=XX #   Q.#X+.  !. X X}.@ 7 q.$.    X =X=X=X",
"=X=X=X=X=Xd   d.@X9.. ~.XXXX|.  : i.%.    =X=X=X=X",
"=X=X=X=X=X+   +.d.9.@.~.{.{.).o.o.o.#.w.9.=X=X=X=X",
"=X=X=X=X8 7 d O   0.j.f.f.f.i.q.0.  O.OXr.  =X=X=X",
"=X=X  Z  X).(.t.5 d 7 d d d 8 u : 7 -         o =X",
"  V d.!. Xg.#.C 2 =   , 3 < # @ # O V r.e.0.l   =X",
"  V }.).i.@.  x S m A B M M 9 9 9   9.XX.X(.#.  =X",
"=X=X$   - 6 o n.T.U.L.m * > w % %   o.(.g.(.#.  =X",
"=X=X=X=X=X4   n.R.L.H.Z.Z.B.B.x.x.z.m./ o.$.l =X=X",
"=X=X=X=X=X=X  b.Y.J.H.H.K.N.N.A.A.F.c.      =X=X=X",
"=X=X=X=X=X=X  v.J.U.J.A.C.x 4 C.C.D.b.% 9 =X=X=X=X",
"=X=X=X=X=X=X  c.P.S.S.k.c < @ b b n n =X=X=X=X=X=X",
"=X=X=X=X=X=X  l.G.M.M.v   $ +       =X=X=X=X=X=X=X",
"=X=X=X=X=X=XO t F F F 0 + =X=X=X=X=X=X=X=X=X=X=X=X",
"=X=X=X=X=X=X=X; 7 2 2 =X=X=X=X=X=X=X=X=X=X=X=X=X=X",
"=X=X=X=X=X=X=X=X. . X =X=X=X=X=X=X=X=X=X=X=X=X=X=X"
};
