/* XPM */
static char *_0884_4cc55bcfbdea43bfdfc7fdea1cfa29a675231f778942843f6cc03d85b41742a9[] = {
/* columns rows colors chars-per-pixel */
"25 25 178 2 ",
"   c #000000",
".  c #0A0000",
"X  c #00010C",
"o  c #1D0000",
"O  c #120000",
"+  c #1F190E",
"@  c #1D151B",
"#  c #220300",
"$  c #2A0200",
"%  c #271A00",
"&  c #381D00",
"*  c #201D16",
"=  c #341B14",
"-  c #3B1913",
";  c #380C05",
":  c #182317",
">  c #392500",
",  c #2A221E",
"<  c #342C1E",
"1  c #00092A",
"2  c #1E1920",
"3  c #261F23",
"4  c #1A262F",
"5  c #002434",
"6  c #1E3032",
"7  c #2C2B2A",
"8  c #202B2E",
"9  c #332421",
"0  c #3B3225",
"q  c #2A3134",
"w  c #3D3B3B",
"e  c #363435",
"r  c #4D0900",
"t  c #5D0700",
"y  c #441405",
"u  c #46140B",
"i  c #5A1C03",
"p  c #571B0C",
"a  c #4E1E14",
"s  c #541B14",
"d  c #651C04",
"f  c #4D231C",
"g  c #54231A",
"h  c #5B281E",
"j  c #522116",
"k  c #672B1E",
"l  c #642618",
"z  c #752816",
"x  c #4C372A",
"c  c #413B37",
"v  c #642E25",
"b  c #682D28",
"n  c #732E29",
"m  c #743127",
"M  c #693634",
"N  c #753432",
"B  c #444027",
"V  c #5B452D",
"C  c #574735",
"Z  c #71573D",
"A  c #063F51",
"S  c #313F48",
"D  c #2C3A4A",
"F  c #1B404B",
"G  c #02475B",
"H  c #084659",
"J  c #10586C",
"K  c #005573",
"L  c #065775",
"P  c #255E76",
"I  c #206079",
"U  c #444141",
"Y  c #434257",
"T  c #7A6149",
"R  c #7B6247",
"E  c #960000",
"W  c #960900",
"Q  c #9B1500",
"!  c #831515",
"~  c #842A00",
"^  c #942904",
"/  c #9A2F13",
"(  c #902F15",
")  c #983216",
"_  c #A2391E",
"`  c #B6321F",
"'  c #973A24",
"]  c #933928",
"[  c #8D3E34",
"{  c #873824",
"}  c #A63E26",
"|  c #BB3E29",
" . c #EA342F",
".. c #FE3233",
"X. c #894234",
"o. c #95423D",
"O. c #AF452D",
"+. c #A1432B",
"@. c #AE4531",
"#. c #AC4A35",
"$. c #A54937",
"%. c #B34534",
"&. c #B24B35",
"*. c #B44E3A",
"=. c #AD503A",
"-. c #B7513B",
";. c #BA513C",
":. c #C24D3E",
">. c #C2563F",
",. c #AD5745",
"<. c #BB5B47",
"1. c #B75947",
"2. c #87694A",
"3. c #8D7052",
"4. c #9A7B59",
"5. c #A37F5B",
"6. c #C45343",
"7. c #C85847",
"8. c #D55F4F",
"9. c #FA4B4D",
"0. c #E95D52",
"q. c #F95956",
"w. c #C5624F",
"e. c #C66753",
"r. c #CB6A55",
"t. c #D16D57",
"y. c #D46E59",
"u. c #D56757",
"i. c #D2715B",
"p. c #DD725F",
"a. c #DD7863",
"s. c #EB6A62",
"d. c #E87462",
"f. c #FC736C",
"g. c #F07065",
"h. c #B0875F",
"j. c #AE8661",
"k. c #B48B61",
"l. c #CB8862",
"z. c #CE986C",
"x. c #D69A6E",
"c. c #C69D73",
"v. c #F59176",
"b. c #C2A379",
"n. c #DBA776",
"m. c #E2AF7C",
"M. c #0B7FA3",
"N. c #777496",
"B. c #727DA1",
"V. c #0581A4",
"C. c #058EBA",
"Z. c #0694BF",
"A. c #2184A6",
"S. c #7286AB",
"D. c #049CCD",
"F. c #049ACA",
"G. c #1B95C2",
"H. c #1F9ECA",
"J. c #1692C2",
"K. c #009DD0",
"L. c #03A7DA",
"P. c #00AADF",
"I. c #1DAFD5",
"U. c #15ABDB",
"Y. c #1FB2D9",
"T. c #01AFE5",
"R. c #00B1E6",
"E. c #00B2E9",
"W. c #00B8ED",
"Q. c #13C1ED",
"!. c #03C4F3",
"~. c #00CBFD",
"^. c #00D7FF",
"/. c #EBB783",
"(. c #EBB681",
"). c #F8BF88",
"_. c #FCCB96",
"`. c None",
/* pixels */
"`.`.`.`.`.`.`.`.`.`.`.`.`.`.`.`.`.`.`.`.`.`.`.`.`.",
"`.`.`.`.`.`.`.`.`.`.`.`.`.`.`.`.`.`.`.`.`.`.`.`.`.",
"`.`.`.`.`.`.`.`.`.        `.`.`.          `.`.`.`.",
"`.`.`.`.`.`.`.`.h v g j a f `.- y f b b N M `.`.`.",
"`.`.`.`.`.      ,.i.<.&.6.$.X u ^ $.t.g.f.o.  `.`.",
"`.`.`.  h $.,.1.8.q.7.7.m l X.$.7.u.f.,.o.N `.`.`.",
"`.`.`.! ] %.7.p.0.q.6.;.g v >.0.a.d.f.[   x `.`.`.",
"`.  s .. .~ -.y.y.i.<.O.;.>.9.q.f.s.y.*./ p   `.`.",
"`.  - ` | O.u.v.t.*.z.n.u.e.:.7.p.d.f.;.^ p   `.`.",
"`.`.; i { :.r.l.<.O.l.x.r.w.+.=.e.r.s.$.d s `.`.`.",
"`.`.`.  k ;.*.@.-.;.%.%.*.&./ } -.*.-.k   `.`.`.`.",
"`.`.`.    = z _ &.-.} _ ) ) *.%.) -.d.X.  `.`.`.`.",
"`.`.V 5.2.  u i ' O.z l 1.1.O.' i n o.m `.`.`.`.`.",
"`.  C /.z.  , X z ) # X e.r.) z   : x `.`.`.`.`.`.",
"`.  C /.c.1 c w , o O . $ # o 9 5 4._.2.      `.`.",
"`.`.`.2.T 4 e U q 8 q e 6 6 q 7 $ V 2.4.h.b.b.x `.",
"`.`.`.    , 7 e e c c U U U e S P A   k.(._._.<   ",
"`.`.`.`.`.+ % % < 0 > > & & $ I E.A.  j.(.m.n.=   ",
"`.`.`.`.K C.J.J.G.G.H.H.Y.Y.I.U.R.V.  C R R Z `.`.",
"`.`.`.  L D.L.E.R.R.F.Z.!.~.^.~.R.V.. X       `.`.",
"`.`.`.  L J.J.U.U.U.F   D.L.!.Q.P.M.  `.`.`.`.`.`.",
"`.`.`.. K F.K.E.E.E.J   G G G H G H `.`.`.`.`.`.`.",
"`.`.`.  Y N.B.S.S.S.D   .         `.`.`.`.`.`.`.`.",
"`.`.`.X t Q W E E E r X `.`.`.`.`.`.`.`.`.`.`.`.`.",
"`.`.`.`.`.@ @ 2 @ 7 `.`.`.`.`.`.`.`.`.`.`.`.`.`.`."
};
