/* XPM */
static char *_0375_354a76e0f52079ca630f19525ae8155adff7767997bae8cf29d36e01893a3d50[] = {
/* columns rows colors chars-per-pixel */
"25 25 183 2 ",
"   c #000000",
".  c #0C0000",
"X  c #00000B",
"o  c #1A0000",
"O  c #000719",
"+  c #1A0E12",
"@  c #001F1F",
"#  c #1B1A19",
"$  c #360804",
"%  c #2C1E1D",
"&  c #341B11",
"*  c #2C170D",
"=  c #3A2707",
"-  c #2B241D",
";  c #1A1921",
":  c #1B232E",
">  c #002733",
",  c #1D2E37",
"<  c #292524",
"1  c #252324",
"2  c #332E2C",
"3  c #3B352F",
"4  c #2E3D39",
"5  c #353435",
"6  c #460200",
"7  c #5C0000",
"8  c #520600",
"9  c #4B1703",
"0  c #4B100B",
"q  c #5A1D0E",
"w  c #4A1917",
"e  c #7B0000",
"r  c #7A1305",
"t  c #6E1F1B",
"y  c #771212",
"u  c #4D211C",
"i  c #6B3500",
"p  c #642A1D",
"a  c #69271C",
"s  c #7B351F",
"d  c #672405",
"f  c #592923",
"g  c #482C2B",
"h  c #762D29",
"j  c #793326",
"k  c #7A2C32",
"l  c #723231",
"z  c #6A2D25",
"x  c #764900",
"c  c #5C4834",
"v  c #644A32",
"b  c #6A533B",
"n  c #3B3E42",
"m  c #3F4141",
"M  c #005D7E",
"N  c #25546B",
"B  c #755C42",
"V  c #724655",
"C  c #7D6248",
"Z  c #860800",
"A  c #9F1700",
"S  c #920F13",
"D  c #9A1C1B",
"F  c #A20000",
"G  c #91310D",
"H  c #842F15",
"J  c #952F13",
"K  c #AD2C00",
"L  c #A63E1F",
"P  c #B33709",
"I  c #853C2D",
"U  c #9B3929",
"Y  c #8F3936",
"T  c #9A3D34",
"R  c #A83729",
"E  c #C53415",
"W  c #CD2A27",
"Q  c #CF332F",
"!  c #D93F35",
"~  c #FC3836",
"^  c #EC2424",
"/  c #994037",
"(  c #AC472C",
")  c #A34631",
"_  c #AB4834",
"`  c #B94F3C",
"'  c #B64938",
"]  c #AD533B",
"[  c #B9523D",
"{  c #B4503B",
"}  c #C14F3A",
"|  c #C2573F",
" . c #D75835",
".. c #ED4037",
"X. c #8F4C43",
"o. c #AC594B",
"O. c #A45140",
"+. c #BC5943",
"@. c #846444",
"#. c #886A4B",
"$. c #876D52",
"%. c #887758",
"&. c #9D7F5E",
"*. c #AF6348",
"=. c #B5664A",
"-. c #B5744F",
";. c #A47A54",
":. c #BB7B72",
">. c #DB4144",
",. c #C25C47",
"<. c #DD524A",
"1. c #D55D40",
"2. c #FE514D",
"3. c #F85150",
"4. c #F14A47",
"5. c #CE6F59",
"6. c #D46956",
"7. c #D6715B",
"8. c #D97662",
"9. c #AC8054",
"0. c #B8855B",
"q. c #A78663",
"w. c #B38F6B",
"e. c #BB8C69",
"r. c #BA936B",
"t. c #B99C76",
"y. c #C68A68",
"u. c #DD8E6B",
"i. c #C59769",
"p. c #C69869",
"a. c #C99E73",
"s. c #D19E71",
"d. c #D78A74",
"f. c #C7A67C",
"g. c #DAA876",
"h. c #E1AC7B",
"j. c #E6B27E",
"k. c #006B85",
"l. c #03779C",
"z. c #2B738F",
"x. c #4E6B84",
"c. c #78718D",
"v. c #00849E",
"b. c #1C809E",
"n. c #168FAD",
"m. c #2785A2",
"M. c #00A1BA",
"N. c #779DAF",
"B. c #0093C3",
"V. c #0F93C4",
"C. c #2DADC3",
"Z. c #3DBEDD",
"A. c #00C0ED",
"S. c #00C4F1",
"D. c #06D5FF",
"F. c #3FC7E3",
"G. c #21D0EF",
"H. c #34D6F7",
"J. c #33D9FC",
"K. c #26D6F9",
"L. c #2AE4FF",
"P. c #46CAEB",
"I. c #42D9FA",
"U. c #41E4FF",
"Y. c #B49089",
"T. c #CB8781",
"R. c #CC9A94",
"E. c #E99991",
"W. c #D8AC81",
"Q. c #DEB98B",
"!. c #E8B785",
"~. c #F3BE89",
"^. c #E1ADA8",
"/. c #F4C08C",
"(. c #E4C090",
"). c #F9C996",
"_. c #FFD29D",
"`. c #FFD6A1",
"'. c #FFDDA7",
"]. c #C9D3D4",
"[. c #E6D5D4",
"{. c #FDFEFE",
"}. c None",
/* pixels */
"}.}.}.}.              }.}.      X }.}.}.}.}.}.}.}.",
"}.}.  l W T.].Y.) o.o.g % o.] R H   }.}.}.}.}.}.}.",
"}.}.  k ^ E.{.^.1.7.6.z f 5.8.E.8.u f }.}.}.}.}.}.",
"}.}.}.}.  9 P ( +.U J [ +.K d.{.[. .X.  }.}.}.}.}.",
"}.}.  k >.<.7.,.' _ ) ' { 0.e.R.d.2.Y X }.}.}.}.}.",
"}.}.  t 4.<.*.*.=.+.` +.,.0.-.F E 3.R S y }.}.}.}.",
"}.}.  9 G d   #.i.=.' 5.7.` _ U ) ] ! ~ D   }.}.}.",
"}.}.}.}.$ &   w.).u.6.+.' ~ Q @ I | ' | a   }.}.}.",
"}.}.}.}.  #   r._.y./ y.u...Q w j I _ | p   }.}.}.",
"}.}.}.}.}.}.  w._.%.  !.`.*.] ( j   j [ p   }.}.}.",
"}.}.}.}.}.}.  f.'.$.  Q.).h.s.i.;.  * $ }.}.}.}.}.",
"}.}.}.}.}.}.}.q.w.t.f.!./.g.r.@.@.}.}.}.}.}.}.}.}.",
"}.}.}.}.}.}.}.O   f.).f.p.9.@.    }.}.}.}.}.}.}.}.",
"}.}.}.}.}.}.                # 3 <   }.}.}.}.}.}.}.",
"}.}.}.}.  %.Q.p.i.b   t.W.# # < #       }.}.}.}.}.",
"}.}.}.}.  &.`.!.g.&.B !.(.3 1 2 1   c $.v }.}.}.}.",
"}.}.}.}.  #.!.p.0.g.j.h.W.m , 5 5   q.~.$.  }.}.}.",
"}.}.}.}.}.v / b v b C x i $ $ = =   q.~.$.  }.}.}.",
"}.}.}.}.}.}.}.}.}.    M v.m.z.z.N   C e.B }.}.}.}.",
"}.}.}.}.}.}.}.}.}.4 - P.U.D.S.B.l.o O   }.}.}.}.}.",
"}.}.}.}.}.}.X   . C.H.H.J.D.S.V.B.B.x.e w   }.}.}.",
"}.}.}.}.X u Z m.M.G.L.L.K.n.b.M x.c.V Z 0   }.}.}.",
"}.}.}.}.  f F Y.I.P.P.P.Z.. .   7 A r r 6   }.}.}.",
"}.}.}.}.}.}.O f U T / k k : > }.}.; + o }.}.}.}.}.",
"}.}.}.}.}.}.}.8 7 7 7 6 6 }.}.}.}.}.}.}.}.}.}.}.}."
};
