/* XPM */
static char *_0677_4aace0e2dc5f9564ddfd535ca4acf33ee7abadfc011b94cc3c1e2f4f53cb0607[] = {
/* columns rows colors chars-per-pixel */
"25 25 186 2 ",
"   c #000000",
".  c #00020A",
"X  c #040809",
"o  c #1C0000",
"O  c #150603",
"+  c #00120A",
"@  c #000514",
"#  c #1B1B1D",
"$  c #17191C",
"%  c #2B0000",
"&  c #3A0000",
"*  c #271A1E",
"=  c #241715",
"-  c #391C18",
";  c #3A2504",
":  c #2E241B",
">  c #332618",
",  c #3F2D1E",
"<  c #001D27",
"1  c #002834",
"2  c #1D2E36",
"3  c #2E2A29",
"4  c #2A2624",
"5  c #3A2222",
"6  c #372020",
"7  c #373434",
"8  c #450800",
"9  c #560703",
"0  c #521601",
"q  c #4D1C16",
"w  c #481602",
"e  c #670300",
"r  c #740000",
"t  c #7D0000",
"y  c #681203",
"u  c #721E0E",
"i  c #6A141D",
"p  c #4B221C",
"a  c #5C2B1E",
"s  c #65271C",
"d  c #532520",
"f  c #463523",
"g  c #523A20",
"h  c #493F32",
"j  c #49292A",
"k  c #772C27",
"l  c #723123",
"z  c #7F3D36",
"x  c #47423D",
"c  c #5C503C",
"v  c #684E34",
"b  c #6A5037",
"n  c #3D3F41",
"m  c #7C3C49",
"M  c #0F4152",
"N  c #004F6B",
"B  c #1A6475",
"V  c #7D5F41",
"C  c #72654C",
"Z  c #554F67",
"A  c #860100",
"S  c #830D00",
"D  c #9B0000",
"F  c #940000",
"G  c #871500",
"H  c #831E18",
"J  c #AA1200",
"K  c #AB0A12",
"L  c #842A0A",
"P  c #83261F",
"I  c #8D301B",
"U  c #98341F",
"Y  c #A32A00",
"T  c #892A28",
"R  c #99362A",
"E  c #A92E31",
"W  c #A23232",
"Q  c #A93B26",
"!  c #DF3833",
"~  c #E93F3B",
"^  c #F83332",
"/  c #944739",
"(  c #8C452B",
")  c #A74936",
"_  c #B64E3B",
"`  c #BF4E3D",
"'  c #B24835",
"]  c #AD5439",
"[  c #BC533E",
"{  c #B7523E",
"}  c #BA4728",
"|  c #D2402D",
" . c #C64F32",
".. c #D5493A",
"X. c #9C4E42",
"o. c #A85747",
"O. c #B95244",
"+. c #836546",
"@. c #8A7556",
"#. c #997957",
"$. c #AE6240",
"%. c #B76145",
"&. c #B66949",
"*. c #A47B54",
"=. c #A17F5B",
"-. c #B57752",
";. c #BA7653",
":. c #91576B",
">. c #D9534A",
",. c #FF4B50",
"<. c #FF5656",
"1. c #C6624E",
"2. c #C66754",
"3. c #D26E5C",
"4. c #D46354",
"5. c #DB735C",
"6. c #D5694C",
"7. c #E3755F",
"8. c #B0885F",
"9. c #A58B69",
"0. c #AC8763",
"q. c #B38B63",
"w. c #B68B66",
"e. c #AB926D",
"r. c #BB9675",
"t. c #B89367",
"y. c #BFA27A",
"u. c #CD9E6E",
"i. c #C39869",
"p. c #C69C72",
"a. c #E99B77",
"s. c #D7A574",
"d. c #DBAA7A",
"f. c #C5A47C",
"g. c #E1AE7B",
"h. c #E6B27F",
"j. c #057E9B",
"k. c #0E6784",
"l. c #236280",
"z. c #24769C",
"x. c #516886",
"c. c #158FA3",
"v. c #0084B1",
"b. c #2F9DBC",
"n. c #758591",
"m. c #678C9C",
"M. c #0393C3",
"N. c #0096C8",
"B. c #1791C0",
"V. c #2CABC7",
"C. c #20B0C8",
"Z. c #59AEC6",
"A. c #6AB3CA",
"S. c #00C9E3",
"D. c #00C4F1",
"F. c #02D7FF",
"G. c #16D4FB",
"H. c #31CAE7",
"J. c #23DAFD",
"K. c #34D6F9",
"L. c #1EE4FF",
"P. c #27E3FF",
"I. c #38E3FF",
"U. c #69C0D7",
"Y. c #B68380",
"T. c #A59A97",
"R. c #9EA5A5",
"E. c #A9A7A7",
"W. c #C98F88",
"Q. c #CDAB80",
"!. c #D8AF82",
"~. c #D7B186",
"^. c #E4BC8D",
"/. c #E9B987",
"(. c #F5BE87",
"). c #D1A6A2",
"_. c #F8C088",
"`. c #FFCE99",
"'. c #F3CA98",
"]. c #FFD49F",
"[. c #EBC393",
"{. c #FFD6A0",
"}. c #FFD9A3",
"|. c #E8D2CF",
" X c #F4F1F0",
".X c None",
/* pixels */
".X.X.X.X.X.X.X.X.X.X.X          o .X.X.X.X.X.X.X.X",
".X.X.X.X.X.X        o 4.3. .). XR.  .X.X.X.X.X.X.X",
".X.X.X.X.Xz X./ ( T.E.o.o.} W.|.Y.K k .X.X.X.X.X.X",
".X.X.X.X  X.7.3.6. X X1   I Y J | <.T   .X.X.X.X.X",
".X.X  W ,.5.t.&._ r.r._ ] _ _ O.O.{ ~ ^ H   .X.X.X",
".X.X.XT E o.;.] Q $.&.1.1._ %.-.%.{ ....s   .X.X.X",
".X.X.X.X  k  .U L ' O.2.2._ ;.p.-.Q ] ) -   .X.X.X",
".X.X  W <.>.[ l   ~ ^ . j 4.a.].9.  ) [ q   .X.X.X",
".X.X  T ..R a u y r P f.r.i w.].9.  a l p .X.X.X.X",
".X.X  0 L w   ( ] b C `.^.  #.].9.  +   .X.X.X.X.X",
".X.X.X.X  O   *.i.d.h.`.~.  #.}.e.  .X.X.X.X.X.X.X",
".X.X.X.X.X.X.Xg f 8.u./.^.^.Q.c C .X.X.X.X.X.X.X.X",
".X.X.X.X.X.X.X  . +.*.8.w.!.9.    .X.X.X.X.X.X.X.X",
".X.X.X.X.X.X  4 3     X       f > , .X.X.X.X.X.X.X",
".X.X.X.X      * 3 # x /.f.  +.d.d.'.@.  .X.X.X.X.X",
".X.X.X+.8.b   4 7 $ x [./.#.w.s./.`.@.  .X.X.X.X.X",
".X.X  #._.#.  7 n 2 h p.d.g.u.*.i.s.C   .X.X.X.X.X",
".X.X  *.(.#.  ; ; & & % % # # * : > .X.X.X.X.X.X.X",
".X.X.XC =.v   l.z.b.V.C.c.    .X.X.X.X.X.X.X.X.X.X",
".X.X.X    1 M v.N.D.F.I.H.B B .X.X.X.X.X.X.X.X.X.X",
".X.X  q A x.M.M.b.D.G.K.K.I.V.O   . .X.X.X.X.X.X.X",
".X.X  9 S m :.Z N k.j.G.P.P.G.S.m.F d   .X.X.X.X.X",
".X.X.X8 y e G 9     $ Z.Z.A.A.U.n.A a   .X.X.X.X.X",
".X.X.X.X  . @ .X.X< = r t F D D e . .X.X.X.X.X.X.X",
".X.X.X.X.X.X.X.X.X.X.X* * 5 5 5 - .X.X.X.X.X.X.X.X"
};
