/* XPM */
static char *_1740_77c516ec44c0f2e3ed2d74d657172b905a855369bcae4123b606ea6844526383[] = {
/* columns rows colors chars-per-pixel */
"25 25 179 2 ",
"   c #000001",
".  c #0D0303",
"X  c #02040B",
"o  c #160000",
"O  c #1C0C04",
"+  c #031000",
"@  c #00001A",
"#  c #06131B",
"$  c #0C1217",
"%  c #16161C",
"&  c #1E1E1D",
"*  c #171914",
"=  c #320100",
"-  c #3E0100",
";  c #3E0A00",
":  c #360B03",
">  c #311704",
",  c #3F1D12",
"<  c #291C18",
"1  c #081922",
"2  c #161820",
"3  c #242321",
"4  c #37292B",
"5  c #2D3134",
"6  c #393532",
"7  c #373636",
"8  c #4C0000",
"9  c #460902",
"0  c #5B0300",
"q  c #5B0E03",
"w  c #420D17",
"e  c #431917",
"r  c #571F19",
"t  c #770000",
"y  c #7D1300",
"u  c #49361D",
"i  c #553815",
"p  c #742100",
"a  c #6D241C",
"s  c #492A25",
"d  c #4C3B29",
"f  c #662B23",
"g  c #763D32",
"h  c #56422D",
"j  c #544839",
"k  c #634D36",
"l  c #69543D",
"z  c #7F5E3B",
"x  c #003543",
"c  c #6D3E44",
"v  c #004458",
"b  c #3F474A",
"n  c #23586E",
"m  c #434445",
"M  c #5F5346",
"N  c #78664A",
"B  c #870000",
"V  c #9A1400",
"C  c #961100",
"Z  c #900D10",
"A  c #821312",
"S  c #882B09",
"D  c #9D2200",
"F  c #B22000",
"G  c #AA3202",
"H  c #AD3C1F",
"J  c #86382A",
"K  c #93342E",
"L  c #983927",
"P  c #B42926",
"I  c #C82E2E",
"U  c #E0312C",
"Y  c #E53832",
"T  c #FF3437",
"R  c #94402E",
"E  c #994535",
"W  c #A8462B",
"Q  c #AD4734",
"!  c #A94C35",
"~  c #A64835",
"^  c #B34434",
"/  c #B64D39",
"(  c #B14A34",
")  c #AE533C",
"_  c #BB523D",
"`  c #C8503F",
"'  c #C84B39",
"]  c #D63E41",
"[  c #964E42",
"{  c #AA5848",
"}  c #BD5642",
"|  c #BE5947",
" . c #B25F4C",
".. c #BA5D48",
"X. c #8D6C4B",
"o. c #966F48",
"O. c #96734F",
"+. c #816E51",
"@. c #8F7051",
"#. c #997D5E",
"$. c #BD6251",
"%. c #AB7F56",
"&. c #A57C54",
"*. c #BD7E5B",
"=. c #B87854",
"-. c #B96747",
";. c #815A6B",
":. c #D94A46",
">. c #C15943",
",. c #D95842",
"<. c #E24442",
"1. c #E7544D",
"2. c #F0504D",
"3. c #FA5E56",
"4. c #C76652",
"5. c #D56F5A",
"6. c #D66B56",
"7. c #DB735A",
"8. c #D16665",
"9. c #EE7A79",
"0. c #AD855E",
"q. c #B7875E",
"w. c #AD8C66",
"e. c #A78762",
"r. c #B48D65",
"t. c #B2936D",
"y. c #BE946A",
"u. c #BA9871",
"i. c #C08061",
"p. c #C79768",
"a. c #D19E6A",
"s. c #CE877C",
"d. c #D69B74",
"f. c #E49E76",
"g. c #CFA170",
"h. c #C2A37A",
"j. c #DCAC7C",
"k. c #D6A677",
"l. c #E1AF7C",
"z. c #E5B17D",
"x. c #077A9E",
"c. c #2C7591",
"v. c #576485",
"b. c #756E8B",
"n. c #686B88",
"m. c #2F819D",
"M. c #1D90AD",
"N. c #008CBB",
"B. c #0096B8",
"V. c #2E83A0",
"C. c #0092C3",
"Z. c #0396C8",
"A. c #29ADCE",
"S. c #00BFEE",
"D. c #15BDE7",
"F. c #54ADD6",
"G. c #03C9F8",
"H. c #09D3FF",
"J. c #2ECBF9",
"K. c #BEAEAD",
"L. c #CD8D85",
"P. c #CA968D",
"I. c #E59589",
"U. c #C7AB81",
"Y. c #D0AC81",
"T. c #DBB284",
"R. c #E6BA89",
"E. c #F1BC86",
"W. c #F5C28F",
"Q. c #E8C292",
"!. c #F9C995",
"~. c #FFD6A1",
"^. c #FFDBA4",
"/. c #FFE4AC",
"(. c #C5C9C9",
"). c #E6D0CE",
"_. c #F8F4F5",
"`. c #F7EDE9",
"'. c None",
/* pixels */
"'.'.'.'.              '.'.        '.'.'.'.'.'.'.'.",
"'.'.'.< I 8.(.K.~ { } k 1 [ { W L X '.'.'.'.'.'.'.",
"'.'.  * U 9._.).,.5.5.E = ..6.I.s.f f '.'.'.'.'.'.",
"'.'.'.'.  + G H ) W S ^ } / H _.`.7.$.  '.'.'.'.'.",
"'.'.X * :.1.5.4.^ / ~ Q / =.q.P.L.3.:.  '.'.'.'.'.",
"'.'..   <.1. ...-.../ | >.*.q.G F 2.:.Z A '.'.'.'.",
"'.'.    S S   h p.=.Q 4.7.>.^ E L ) ' T P   '.'.'.",
"'.'.'.'.: ,   N !.f.6.| ^ Y Y s s _ _ ` K   '.'.'.",
"'.'.'.'.'.*   +.^.d.K i.d.,.U a f J R >.J   '.'.'.",
"'.'.'.'.'.'.  N ^.w.  h.^.5.) ! L   r ) J   '.'.'.",
"'.'.'.'.'.'.  +./.t.  h.~.j.k.p.0.+ O > '.'.'.'.'.",
"'.'.'.'.'.    h u.t.h.R.W.j.g.O.E '.'.'.'.'.'.'.'.",
"'.'.'.'.l l k d   #.!.k.y.0.&.+   '.'.'.'.'.'.'.'.",
"'.'.  . Q.!.l.r.        X     O         '.'.'.'.'.",
"'.'..   R.E.a.p.g.X.  * % % & 1 M Y.T.T.e.  '.'.'.",
"'.'.'.o q.r.o.%.k.@.  4 6 6 7 7 M Y.R.^.u.  '.'.'.",
"'.'.'.'.              5 m b b m 7   N ~.t.  '.'.'.",
"'.'.'.'.'.'.'.'.'.3   > u ; ; # j p.j.~.t.  '.'.'.",
"'.'.'.'.'.'.'.'.'.3   n c.c.V.@ i k.l.!.w.  '.'.'.",
"'.'.'.'.'.'.o $ % $ o x.C.S.H.v u r.y.z.%.  '.'.'.",
"'.'.'.'.  e D ;.C.N.N.C.C.G.H.G.A.8 9 j d '.'.'.'.",
"'.'.'.'.'.e p c b.b.b.n.v.m.M.H.G.B.x.8 , # '.'.'.",
"'.'.'.'.'.'.  8 V C C B t =   D.G.J.F.B r   '.'.'.",
"'.'.'.'.'.'.'.'.2 2 2 1 % '.'.x s L L A q   '.'.'.",
"'.'.'.'.'.'.'.'.'.'.'.'.'.'.'.'.- 0 0 9 - '.'.'.'."
};
