/* XPM */
static char *_2396_78e314d4539cabe694292792f03c78de5a13c5f7684dc62c8728b09fafbce957[] = {
/* columns rows colors chars-per-pixel */
"25 25 183 2 ",
"   c #000000",
".  c #00020B",
"X  c #050708",
"o  c #1B0202",
"O  c #110F0D",
"+  c #1B120C",
"@  c #000F1D",
"#  c #00001F",
"$  c #00111E",
"%  c #0A1117",
"&  c #141713",
"*  c #2A0706",
"=  c #3C0802",
"-  c #25100B",
";  c #321306",
":  c #2B1F13",
">  c #3F2600",
",  c #392A1A",
"<  c #000323",
"1  c #061E2A",
"2  c #141D23",
"3  c #3D1D22",
"4  c #2C2522",
"5  c #342D24",
"6  c #3B2329",
"7  c #3B312A",
"8  c #363535",
"9  c #3D3B39",
"0  c #2B3137",
"q  c #4F0900",
"w  c #550700",
"e  c #5B1F15",
"r  c #4C1A12",
"t  c #6C0400",
"y  c #650000",
"u  c #750000",
"i  c #7B0100",
"p  c #7F0B00",
"a  c #6D150E",
"s  c #432216",
"d  c #572519",
"f  c #42321A",
"g  c #67271B",
"h  c #702708",
"j  c #502920",
"k  c #44382A",
"l  c #743626",
"z  c #793628",
"x  c #34412D",
"c  c #374E36",
"v  c #594734",
"b  c #72553A",
"n  c #3D3F40",
"m  c #024358",
"M  c #1F4153",
"N  c #3F4547",
"B  c #004A60",
"V  c #0B536D",
"C  c #414244",
"Z  c #6F5F47",
"A  c #7D4D5F",
"S  c #795F46",
"D  c #5B586F",
"F  c #7F5162",
"G  c #744B63",
"H  c #7A7C7C",
"J  c #830A00",
"K  c #A30000",
"L  c #A80000",
"P  c #822501",
"I  c #9B2E0C",
"U  c #842F1D",
"Y  c #8D3119",
"T  c #A32400",
"R  c #BD2D00",
"E  c #A6211F",
"W  c #822B25",
"Q  c #803425",
"!  c #923025",
"~  c #933538",
"^  c #A83B29",
"/  c #A63E31",
"(  c #A6292D",
")  c #CC302A",
"_  c #FE292F",
"`  c #844A3B",
"'  c #95473A",
"]  c #875B3E",
"[  c #AE4332",
"{  c #A94C3A",
"}  c #B64F3A",
"|  c #BB4736",
" . c #B5533D",
".. c #B7543A",
"X. c #AD5B36",
"o. c #B06B3F",
"O. c #CE4E23",
"+. c #C54739",
"@. c #FF423B",
"#. c #E7483A",
"$. c #B85544",
"%. c #8E6C4B",
"&. c #866545",
"*. c #99724E",
"=. c #806D50",
"-. c #917151",
";. c #AD6143",
":. c #B6734E",
">. c #AF6A50",
",. c #A47F5B",
"<. c #B97B58",
"1. c #AD714A",
"2. c #8B5669",
"3. c #8F586B",
"4. c #967D60",
"5. c #8F6F66",
"6. c #C95645",
"7. c #ED4145",
"8. c #F3504E",
"9. c #FF5856",
"0. c #F3494B",
"q. c #C3694E",
"w. c #CA6552",
"e. c #C36653",
"r. c #D66F5C",
"t. c #DA755D",
"y. c #F06154",
"u. c #E0745E",
"i. c #D27464",
"p. c #A4815D",
"a. c #AB835C",
"s. c #BC8E5E",
"d. c #AF8A65",
"f. c #AA8B69",
"g. c #B98865",
"h. c #AE946F",
"j. c #B8946A",
"k. c #BE9D76",
"l. c #C39669",
"z. c #C09367",
"x. c #CE9F70",
"c. c #D7A474",
"v. c #D9A674",
"b. c #D8AA7B",
"n. c #E5B17F",
"m. c #076B85",
"M. c #0D798C",
"N. c #287998",
"B. c #008EBE",
"V. c #2883A5",
"C. c #4988B1",
"Z. c #0093C3",
"A. c #08A9CF",
"S. c #00A3D3",
"D. c #04AAD1",
"F. c #00B5DF",
"G. c #2AABD0",
"H. c #00BFEB",
"J. c #49ACD1",
"K. c #66B2D6",
"L. c #08CEFD",
"P. c #02DBFF",
"I. c #07D0FF",
"U. c #9C8987",
"Y. c #BFA181",
"T. c #A9AFB1",
"R. c #D1AF85",
"E. c #DCB789",
"W. c #E3BC8D",
"Q. c #EBBB8B",
"!. c #E9B886",
"~. c #F1BD8A",
"^. c #D3B4B1",
"/. c #F6C08A",
"(. c #FBCA97",
"). c #FACC99",
"_. c #F5C795",
"`. c #FFDDA6",
"'. c #CFD6D7",
"]. c #E7CBC8",
"[. c #EDEBEB",
"{. c white",
"}. c None",
/* pixels */
"}.}.}.}.}.}.}.}.}.}.}.}..           }.}.}.}.}.}.}.",
"}.}.}.}.}.}.}.          { r.e.i.[.'.  }.}.}.}.}.}.",
"}.}.}.}.}.}.d ' ' Y U.T.5.{ $.e.].^.L ~ X }.}.}.}.",
"}.}.}.}.}.X l t.t.O.].{.H   U I L R 9.+.  }.}.}.}.",
"}.}.}.  = 7.9.j.s.[ <.R.>.[ } } $...} +._ E   }.}.",
"}.}.}.}.}.( { <.;.( ;.;.q.w.....:.:.} +.#.!   }.}.",
"}.}.}.}.}.  d +.^ P [ 6.e.e.$.$.l.g.[ {  .z   }.}.",
"}.}.}.  = 8.8...'   ) @.W . w.t.).E.  l 6.Q   }.}.",
"}.}.}.  ; +.| g a t i i d.R.` ` ).E.  s z d }.}.}.",
"}.}.}.  - h h   d X.] c E.`.x   ).W.  &   }.}.}.}.",
"}.}.}.}.}.o -   b s.v.n.~.).k . ).W.  7 }.}.}.}.}.",
"}.}.}.}.}.}.}.}.}., a.x.b.~.W.R.Z v       }.}.}.}.",
"}.}.}.}.}.}.}.}.    b *.p.g.b.k.  X -.-.h.=.}.}.}.",
"}.}.}.}.}.k 5 : + + .             S n.!.`.h.  }.}.",
"}.}.}.  k E.Q.(.k.< 7 4 4 5 + k v.v.l.x./.p.  }.}.",
"}.}.}.  7 _.).j.4.0 9 8 8 8 X : a.p.%.-.a.&.  }.}.",
"}.}.}.  5 _.W.  4 9 N N N 9 O             }.}.}.}.",
"}.}.}.  5 _._.b.d.# ; = s f % 2 }.}.}.}.}.}.}.}.}.",
"}.}.}.  k !.~.v.p.  N.G.V.N.2       . }.}.}.}.}.}.",
"}.}.}.  k l.j.1.5.m D.P.D.B.V m B M w d }.}.}.}.}.",
"}.}.}.}.}..     m.L.L.P.Z.B.Z.B.Z.C.T W   }.}.}.}.",
"}.}.}.  % y D F.L.P.A.V D G 2.2.3.A q r }.}.}.}.}.",
"}.}.}.  & u 2.K.J.D.M.  w t J J J u . }.}.}.}.}.}.",
"}.}.}.  o a p K u   }.}.1 1 @ @ $ < }.}.}.}.}.}.}.",
"}.}.}.}.}.* * 3 6 }.}.}.}.}.}.}.}.}.}.}.}.}.}.}.}."
};
