/* XPM */
static char *e5e3341bcf614507f5518c94cec734b2Fo21zDcmEAtL9BDV[] = {
/* columns rows colors chars-per-pixel */
"25 25 170 2 ",
"   c None",
".  c #010202",
"X  c #110202",
"o  c #160303",
"O  c #170303",
"+  c #170404",
"@  c #180202",
"#  c #180303",
"$  c #190303",
"%  c #180404",
"&  c #190404",
"*  c #190506",
"=  c #100B09",
"-  c #100B0A",
";  c #110C0A",
":  c #160E0B",
">  c #09160A",
",  c #09170B",
"<  c #0A170A",
"1  c #0B190B",
"2  c #1A1C07",
"3  c #141B09",
"4  c #1B1D08",
"5  c #1F1411",
"6  c #1F1617",
"7  c #1C1D10",
"8  c #1F1818",
"9  c #270404",
"0  c #2A0606",
"q  c #2B0606",
"w  c #2B0707",
"e  c #2D0606",
"r  c #2C0707",
"t  c #2D0707",
"y  c #2E0707",
"u  c #220C0C",
"i  c #3B0E0E",
"p  c #22190E",
"a  c #291D10",
"s  c #341C1D",
"d  c #122A13",
"f  c #1A2E14",
"g  c #29310F",
"h  c #233113",
"j  c #293310",
"k  c #352C2D",
"l  c #451313",
"z  c #4B1515",
"x  c #411C1D",
"c  c #741615",
"v  c #553C32",
"b  c #643D34",
"n  c #357937",
"m  c #5C4137",
"M  c #841718",
"N  c #8F1E1E",
"B  c #901616",
"V  c #911616",
"C  c #911717",
"Z  c #921717",
"A  c #941717",
"S  c #911818",
"D  c #971A1A",
"F  c #981B1B",
"G  c #A01818",
"H  c #A01919",
"J  c #A11919",
"K  c #A21919",
"L  c #A31A1A",
"P  c #A41919",
"I  c #A51919",
"U  c #A71E1E",
"Y  c #A91E1E",
"T  c #B61B1B",
"R  c #B71B1B",
"E  c #B51C1C",
"W  c #B71C1C",
"Q  c #B81C1C",
"!  c #B91C1C",
"~  c #B81D1D",
"^  c #B91D1D",
"/  c #9F2222",
"(  c #9B2B2C",
")  c #9B2D2E",
"_  c #A82020",
"`  c #A92C2D",
"'  c #AA2D2E",
"]  c #B12323",
"[  c #BE2020",
"{  c #BE2121",
"}  c #BF2424",
"|  c #A33031",
" . c #AF3A3B",
".. c #C32525",
"X. c #C42626",
"o. c #C52626",
"O. c #C52727",
"+. c #C62626",
"@. c #C62727",
"#. c #CB2B2A",
"$. c #CB2B2B",
"%. c #CC2C2C",
"&. c #CE2C2C",
"*. c #CF2F2F",
"=. c #C03131",
"-. c #C83636",
";. c #C73738",
":. c #C53E3F",
">. c #CF3C3D",
",. c #D33131",
"<. c #D33232",
"1. c #D33233",
"2. c #D53333",
"3. c #E03B3B",
"4. c #E13C3C",
"5. c #E23C3C",
"6. c #E23D3D",
"7. c #E33D3D",
"8. c #E43D3D",
"9. c #DA4D4E",
"0. c #DB5C5D",
"q. c #E14646",
"w. c #EB4343",
"e. c #E84B4C",
"r. c #E84E4F",
"t. c #EB4E4E",
"y. c #EA4F4F",
"u. c #F14747",
"i. c #F14848",
"p. c #F34848",
"a. c #F25656",
"s. c #FD5151",
"d. c #FF5252",
"f. c #FF5353",
"g. c #F16162",
"h. c #F26162",
"j. c #F86667",
"k. c #FF6A6B",
"l. c #FF6C6D",
"z. c #458F3F",
"x. c #478F3E",
"c. c #588533",
"v. c #64983C",
"b. c #6E9D3B",
"n. c #4A9B45",
"m. c #56A144",
"M. c #57A244",
"N. c #76AB41",
"B. c #8EA832",
"V. c #8FA932",
"C. c #C89699",
"Z. c #DB969A",
"A. c #EE999C",
"S. c #F29295",
"D. c #F0989B",
"F. c #F19B9F",
"G. c #E29CA0",
"H. c #EEA5A8",
"J. c #FDA7AA",
"K. c #E0B4B8",
"L. c #E4B8BC",
"P. c #FEB2B6",
"I. c #FFB3B7",
"U. c #FFB5B9",
"Y. c #FFB7BB",
"T. c #F9BBBF",
"R. c #FDCACF",
"E. c #FFCCD1",
"W. c #FFCED3",
"Q. c #FFCFD4",
/* pixels */
"                                                  ",
"                                                  ",
"                                  4 3             ",
"                              2 j B.b.f           ",
"                            j B.N.M.n.n <         ",
"                    ; -   h v.M.x.d , ,           ",
"                  - v m 7 c.x.d <                 ",
"                    5 b : a p                     ",
"            % u 6 . X c i | M 9 # $               ",
"          y / 0.C.k 8 x N z l ( ' S r             ",
"        o D r.P.R.L.K.G.a.q.9.A.F.:.Z %           ",
"        q I >.T.Q.W.Y.l.f.p.*.-.g.S. .%           ",
"      % V +.t.P.R.Y.k.f.u.,.7.^ +.g.Z.s           ",
"      $ Y 8.,.g.J.j.s.i.,.7.+.^ T ;.H.) #         ",
"      % P +.7.,.t.2.w.,.7.+.^ W T =.D.' #         ",
"      % F ^ +.5.#.3.#.7.+.W W W W } e._ #         ",
"      % K ^ W { ^ { ^ { W W W W W ^ +.K %         ",
"      % V W W W W W W W W W W W W +.7.F O         ",
"        r K ^ W W W W W W W { ^ X.7.] q           ",
"        o V W W W W W W ^ +.7.%.7.X.V +           ",
"          y V K W ^ W K Y 3.*.7.+.A r             ",
"            + y V K B q q F K Y V r               ",
"                % % %     # % $ +                 ",
"                                                  ",
"                                                  "
};
