/* XPM */
static char *_cd4d484deca4b638589f3ae288678f3iIWi04qE6I8CAm6V[] = {
/* columns rows colors chars-per-pixel */
"25 25 116 2 ",
"   c None",
".  c #5F7FCA",
"X  c #607FC5",
"o  c #6481C7",
"O  c #6783C6",
"+  c #6980C5",
"@  c #6E87C7",
"#  c #6989C5",
"$  c #6F88C7",
"%  c #7088C7",
"&  c #7087C8",
"*  c #7088C8",
"=  c #7188C8",
"-  c #7189C8",
";  c #7089C9",
":  c #718AC8",
">  c #728BC9",
",  c #708DC8",
"<  c #738CC9",
"1  c #708FC8",
"2  c #768FC9",
"3  c #708ECE",
"4  c #7793CC",
"5  c #7796CC",
"6  c #7895CB",
"7  c #7893CC",
"8  c #7895CC",
"9  c #7995CC",
"0  c #7894CD",
"q  c #7A95CC",
"w  c #7A97CC",
"e  c #7B98CD",
"r  c #7C9ACD",
"t  c #7D99CF",
"y  c #7A94D1",
"u  c #7B96D0",
"i  c #7B9BD3",
"p  c #7C9AD4",
"a  c #7993D9",
"s  c #7E99DC",
"d  c #809FD0",
"f  c #809FD3",
"g  c #81A2CF",
"h  c #8EA5D3",
"j  c #88A1D5",
"k  c #89A0D6",
"l  c #8AAAD4",
"z  c #8BA7DA",
"x  c #8DA9D9",
"c  c #8CA8DA",
"v  c #94ACD7",
"b  c #93AAD9",
"n  c #92ABDD",
"m  c #98ADDB",
"M  c #9DB1DB",
"N  c #9AB5DE",
"B  c #9FB5DC",
"V  c #9CB6DF",
"C  c #8EA9E1",
"Z  c #83A4E9",
"A  c #98B3E0",
"S  c #9BB5E2",
"D  c #9FB7E1",
"F  c #9AB3E4",
"G  c #98B4E5",
"H  c #95B5EB",
"J  c #9FB7E8",
"K  c #9DB9EA",
"L  c #9FBBF3",
"P  c #A0B8E7",
"I  c #A4BDE5",
"U  c #A1B9E8",
"Y  c #A4BDE8",
"T  c #A1BBEE",
"R  c #A0BFF8",
"E  c #A6C0E3",
"W  c #AAC4E7",
"Q  c #B0C7EC",
"!  c #B1C8ED",
"~  c #B2C9ED",
"^  c #B3CBEF",
"/  c #B6CCED",
"(  c #B5CDEF",
")  c #B9D0EF",
"_  c #B7CFF0",
"`  c #B6CEF7",
"'  c #B9D3F2",
"]  c #BBD4F0",
"[  c #BDD5F6",
"{  c #BBD5F9",
"}  c #BBD5FB",
"|  c #BAD4FD",
" . c #CFD5ED",
".. c #C2DBF4",
"X. c #C4DCF6",
"o. c #CEDAF3",
"O. c #C0DEFF",
"+. c #D3DEF3",
"@. c #D0DCFA",
"#. c #C6E0FF",
"$. c #C7E3FF",
"%. c #CBE1FA",
"&. c #DBE3F5",
"*. c #DEE4F7",
"=. c #D4E2FE",
"-. c #DBE6F8",
";. c #D3E9FF",
":. c #DBE8FF",
">. c #DEEDFF",
",. c #D5F0FF",
"<. c #D9F7FF",
"1. c #E4E7F9",
"2. c #E0E8F9",
"3. c #E5EFFF",
"4. c #E5F2FF",
"5. c #F1F9FF",
/* pixels */
"                                                  ",
"                                                  ",
"                                                  ",
"                                                  ",
"              6 = = $ ; =                         ",
"        0 y s a ; $   = = = $       0             ",
"      Q { . +                       = = <         ",
"      l %.@.              4 w 0 w 0     V <.z     ",
"        P 5.2.1.                  X Z v X.S       ",
"            ( >.4.*.=. .          -.3.;.A         ",
"            H 3 y M           *.+.:.o.Y           ",
"            g L                                   ",
"              K ^ ~   b k     m ~                 ",
"                x O.$.{ | ] #.,.] P               ",
"                i #           h u U               ",
"              L W =         o p F                 ",
"                I T E V x k N `                   ",
"                    ) ( _ [ ..W                   ",
"                        G n C g                   ",
"                      o 1 i 5                     ",
"                      7 <                         ",
"                        e r                       ",
"                                                  ",
"                                                  ",
"                                                  "
};
