/* XPM */
static char *_29c94f18bff45a0d0cb50fb7663119bbcjSkTbO4wvRh2Eo[] = {
/* columns rows colors chars-per-pixel */
"25 25 121 2 ",
"   c None",
".  c #5A76C4",
"X  c #5E7FC6",
"o  c #617AC3",
"O  c #6583C6",
"+  c #6584C4",
"@  c #6F86C7",
"#  c #6F88C7",
"$  c #6887C8",
"%  c #6F87C8",
"&  c #6E8BC8",
"*  c #7087C8",
"=  c #7089C8",
"-  c #7189C8",
";  c #7188C9",
":  c #7288C8",
">  c #7289C9",
",  c #718AC9",
"<  c #738CC9",
"1  c #748DC9",
"2  c #748EC9",
"3  c #7690CA",
"4  c #7691CA",
"5  c #7693CB",
"6  c #7594CB",
"7  c #7695CD",
"8  c #7894CA",
"9  c #7994CC",
"0  c #7895CC",
"q  c #7A95CD",
"w  c #7897CC",
"e  c #7B97CD",
"r  c #7B99CD",
"t  c #7D9BCF",
"y  c #799CCF",
"u  c #7B95D2",
"i  c #7E9AD1",
"p  c #7FA0DB",
"a  c #819ED6",
"s  c #859FD7",
"d  c #899FD7",
"f  c #81A0D2",
"g  c #83A2D3",
"h  c #86A1D2",
"j  c #86A1D5",
"k  c #8AA3D1",
"l  c #8CA3D7",
"z  c #8EA6D9",
"x  c #8DA9D9",
"c  c #8EAADB",
"v  c #94ACD7",
"b  c #98A9D6",
"n  c #90A9D9",
"m  c #91AEDB",
"M  c #93A8DD",
"N  c #99ADDA",
"B  c #9BB2DA",
"V  c #AABADF",
"C  c #819CE5",
"Z  c #8FAFE2",
"A  c #8FACE5",
"S  c #85A6EB",
"D  c #90ACE2",
"F  c #9AB3E0",
"G  c #9AB3E2",
"H  c #99B5E0",
"J  c #9CB6E4",
"K  c #9CB6E5",
"L  c #93B1EE",
"P  c #9FBDF1",
"I  c #A4BCE4",
"U  c #A1B9E8",
"Y  c #A0B8E9",
"T  c #A0BAE9",
"R  c #A5BCE9",
"E  c #A7C1E6",
"W  c #A8C2E3",
"Q  c #AEC7E6",
"!  c #AFC7EC",
"~  c #B1C9E9",
"^  c #B2C9EE",
"/  c #B4CCEF",
"(  c #B6CDEF",
")  c #B7CFEF",
"_  c #A4C1F0",
"`  c #ABC5F4",
"'  c #B3CBF4",
"]  c #B0CBF8",
"[  c #B4D2F7",
"{  c #BAD1F1",
"}  c #BFD1F2",
"|  c #BCD5F1",
" . c #BFD7F1",
".. c #B9D2F7",
"X. c #BED6F5",
"o. c #BBD5FF",
"O. c #D5D7EE",
"+. c #C3DBF5",
"@. c #CBD8F3",
"#. c #CCDAF1",
"$. c #C2DCFC",
"%. c #D1DCF2",
"&. c #C7E2FF",
"*. c #C6E4FF",
"=. c #D6E0F5",
"-. c #D5E2F6",
";. c #DAE3F5",
":. c #D9E1F7",
">. c #DBE3F6",
",. c #DCE6F7",
"<. c #D6E6FF",
"1. c #D3E9FF",
"2. c #D2EEFF",
"3. c #DBE8FF",
"4. c #D7F3FF",
"5. c #D8F5FF",
"6. c #E4E8F9",
"7. c #E3F1FF",
"8. c #E6F0FF",
"9. c #E7F0FF",
"0. c #F2F7FF",
/* pixels */
"                                                  ",
"                                                  ",
"                                                  ",
"                                                  ",
"                          = @ > > @ 4             ",
"              8       * @ > >     > = C u 1 s     ",
"          & 1 >                       : . h 2.    ",
"      c 5.B     9 e e e 4               I =.[     ",
"        Y +.v S O                   6.>.0.<.      ",
"          H 1.9.,.          O.@.>.9.7.} ~         ",
"            R #.3.%.>.=.        b n X D y         ",
"                                    M Z           ",
"                  ( N     d l   ^ ( ] g           ",
"                Y Q 4.&.| ..o.$.*._               ",
"                Y i k           + 7               ",
"                  J a $           L J             ",
"                    ' I j x m W G `               ",
"                    E  .X.| ( ( !                 ",
"                    i A z P H                     ",
"                      r p 6 o                     ",
"                          2 4                     ",
"                        t r                       ",
"                                                  ",
"                                                  ",
"                                                  "
};
